<?xml version="1.0" encoding="utf-8"?>
<!-- Generator: Adobe Illustrator 24.0.2, SVG Export Plug-In . SVG Version: 6.00 Build 0)  -->
<svg version="1.1" id="Layer_1" xmlns="http://www.w3.org/2000/svg" xmlns:xlink="http://www.w3.org/1999/xlink" x="0px" y="0px"
	 viewBox="0 0 233.14 51.4" enable-background="new 0 0 233.14 51.4" xml:space="preserve">
<g>
	<path fill="#EC2779" d="M18.28,14.5c5.08-0.2,9.91,0.74,14.16,3.78c1.7,1.22,3.11,2.67,1.78,5.01c-1.39,2.43-3.36,2.44-5.53,1.21
		c-5.88-3.34-11.99-3.65-18.26-1.34c-1.02,0.38-2.56,0.74-2.56,2.08c0,1.71,1.75,1.87,2.95,2.1c4.57,0.89,9.16,1.69,13.77,2.36
		c3.03,0.44,5.87,1.32,8.31,3.15c4.49,3.36,4.72,9.24,0.62,12.93c-6.89,6.21-22.35,6.62-29.46,0.73c-1.81-1.5-3.9-3.24-2.14-5.84
		c1.86-2.76,4.08-1.66,6.45-0.16c5.79,3.67,11.98,3.38,18.18,1.08c1.02-0.38,2.54-0.83,2.19-2.24c-0.17-0.68-1.46-1.37-2.35-1.56
		c-3.74-0.8-7.5-1.5-11.28-2.08c-3.46-0.53-6.91-1.02-10.04-2.76c-6.32-3.52-6.81-10.34-1-14.57C8.29,15.3,13.1,14.27,18.28,14.5z"
		/>
	<path fill="#EC2779" d="M197,24.95c0-6.65,0-13.31,0.01-19.96c0-2.47,0.29-4.89,3.49-4.99c3.25-0.1,3.63,2.37,3.72,4.8
		c0.13,3.65-1.25,8.38,0.54,10.68c2.15,2.77,6.26-1.22,9.85-1.16c10.24,0.19,18.19,7.41,18.48,17.64c0.12,4.32,0.02,8.65,0.03,12.98
		c0.01,2.6-0.06,5.45-3.45,5.56c-3.82,0.12-3.77-3.04-3.82-5.73c-0.07-3.99,0.06-7.99-0.05-11.98c-0.17-6.56-4.73-11.07-11-11.01
		c-5.9,0.05-10.3,4.59-10.5,11c-0.13,3.99-0.02,7.98-0.06,11.98c-0.03,2.72-0.04,5.83-3.83,5.7c-3.33-0.12-3.47-2.85-3.44-5.53
		C197.05,38.26,196.99,31.61,197,24.95z"/>
	<path fill="#EC2779" d="M68.62,28.81c-3.23-5.86-7.3-7.97-12.61-6.82c-4.44,0.96-7.19,4.07-8.02,8.55
		c-0.92,4.97,0.94,8.86,5.38,11.29c4.24,2.31,8.36,1.74,12.09-1.23c2.12-1.69,4.3-2.3,6.09,0c1.84,2.37,0.33,4.35-1.59,5.96
		c-5.92,4.99-15.21,5.47-21.4,1.13c-7.06-4.95-10.06-13.87-7.24-21.55c2.82-7.67,11.26-12.56,20.03-11.59
		c7.09,0.78,13.72,7.35,14.92,14.77c0.85,5.27-0.28,6.66-5.57,6.7c-3.82,0.03-7.65,0.02-11.48-0.01c-2.44-0.02-4.29-0.84-4.26-3.69
		c0.03-2.62,1.93-3.36,4.03-3.47C61.92,28.7,64.85,28.81,68.62,28.81z"/>
	<path fill="#EC2679" d="M105.05,51.02c-13.57,1.91-23.04-3.76-25.2-14.73c-2.17-11.05,4.98-21.17,16.16-22.85
		c10.6-1.59,20.77,6.23,21.71,17.11c0.45,5.28,0.14,10.63,0.07,15.95c-0.02,2.11-0.79,4.12-2.93,4.78c-2.28,0.7-2.41-1.8-3.34-2.96
		c-2.68-3.34-3.98-6.32-0.98-10.84c3.19-4.79,0.91-11.44-3.65-15.18c-4.41-3.62-10.58-4.03-15.36-1.02
		c-4.85,3.06-7.28,8.89-5.94,14.21c1.44,5.7,6.35,9.85,12.1,10.24C102.5,46.06,102.5,46.06,105.05,51.02z"/>
	<path fill="#EC2779" d="M160.88,32.13c0.04-7.68,3.95-13.02,10.63-16.09c6.33-2.91,12.69-2.34,18.35,2.04
		c1.96,1.52,4.31,3.36,2.2,6.18c-2,2.68-4.24,1.36-6.5-0.16c-6.22-4.16-12.38-2.91-15.79,3.03c-3.37,5.86-1.41,12.2,4.73,15.01
		c3.99,1.83,7.83,1.29,11.26-1.38c2.27-1.77,4.54-2.65,6.39,0.1c1.91,2.83-0.25,4.72-2.38,6.12c-5.94,3.9-12.36,5.26-18.87,1.77
		C164.4,45.28,160.84,39.71,160.88,32.13z"/>
	<path fill="#EC2779" d="M120.79,36.44c-0.9-6.81,0.66-14.05,8.12-19.13c10.79-7.35,26.86,0.09,27.94,13.09
		c0.2,2.38,0.14,4.94-2.9,5.51c-3.11,0.58-3.87-1.61-4.39-4.13c-1.45-6.98-5.78-10.51-12.01-9.98c-5.62,0.48-9.38,5.24-9.45,12
		c-0.04,3.82-0.02,7.65-0.07,11.47c-0.03,2.65-0.44,5.34-3.86,5.2c-2.99-0.13-3.52-2.47-3.4-5.07
		C120.88,42.91,120.79,40.41,120.79,36.44z"/>
	<path fill="#EA2C7C" d="M97.68,23.29c0.83,0.03,2.03-0.14,2.22,1.2c0.2,1.4-0.94,1.49-1.96,1.59c-2.48,0.26-4.43,1.4-5.66,3.59
		c-0.56,1-1.29,1.69-2.37,1.1c-1.28-0.7-0.5-1.72-0.03-2.54C91.57,25.28,94.16,23.67,97.68,23.29z"/>
</g>
<g>
</g>
<g>
</g>
<g>
</g>
<g>
</g>
<g>
</g>
<g>
</g>
<g>
</g>
<g>
</g>
<g>
</g>
<g>
</g>
<g>
</g>
<g>
</g>
<g>
</g>
<g>
</g>
<g>
</g>
</svg>
