<svg width="1366" height="927" viewBox="0 0 1366 927" fill="none" xmlns="http://www.w3.org/2000/svg">
<g opacity="0.857073">
<g opacity="0.15">
<path fill-rule="evenodd" clip-rule="evenodd" d="M106.537 168.659C106.537 172.477 103.44 175.573 99.622 175.573C95.8038 175.573 92.7073 172.477 92.7073 168.659C92.7073 164.839 95.8038 161.744 99.622 161.744C103.44 161.744 106.537 164.839 106.537 168.659Z" stroke="white"/>
<path fill-rule="evenodd" clip-rule="evenodd" d="M125.305 196.811C125.305 199.266 123.315 201.256 120.86 201.256C118.406 201.256 116.415 199.266 116.415 196.811C116.415 194.356 118.406 192.366 120.86 192.366C123.315 192.366 125.305 194.356 125.305 196.811Z" stroke="white"/>
<path fill-rule="evenodd" clip-rule="evenodd" d="M97.6463 186.933C97.6463 189.388 95.6563 191.378 93.2012 191.378C90.7461 191.378 88.7561 189.388 88.7561 186.933C88.7561 184.478 90.7461 182.488 93.2012 182.488C95.6563 182.488 97.6463 184.478 97.6463 186.933Z" stroke="white"/>
<path fill-rule="evenodd" clip-rule="evenodd" d="M115.427 186.933C115.427 189.388 113.436 191.378 110.981 191.378C108.526 191.378 106.537 189.388 106.537 186.933C106.537 184.478 108.526 182.488 110.981 182.488C113.436 182.488 115.427 184.478 115.427 186.933Z" stroke="white"/>
<path fill-rule="evenodd" clip-rule="evenodd" d="M132.22 183.97C132.22 185.878 130.672 187.427 128.762 187.427C126.852 187.427 125.305 185.878 125.305 183.97C125.305 182.061 126.852 180.512 128.762 180.512C130.672 180.512 132.22 182.061 132.22 183.97Z" stroke="white"/>
<path fill-rule="evenodd" clip-rule="evenodd" d="M111.476 202.737C111.476 204.101 110.37 205.207 109.006 205.207C107.642 205.207 106.537 204.101 106.537 202.737C106.537 201.373 107.642 200.268 109.006 200.268C110.37 200.268 111.476 201.373 111.476 202.737Z" stroke="white"/>
<path fill-rule="evenodd" clip-rule="evenodd" d="M122.341 170.14C122.341 171.504 121.235 172.61 119.871 172.61C118.507 172.61 117.402 171.504 117.402 170.14C117.402 168.776 118.507 167.671 119.871 167.671C121.235 167.671 122.341 168.776 122.341 170.14Z" stroke="white"/>
<path fill-rule="evenodd" clip-rule="evenodd" d="M149.65 180.389C149.066 179.056 148.004 178.681 146.913 179.154C146.266 179.435 145.703 179.659 145.703 179.659C144.694 180.08 143.595 180.598 142.483 180.598H142.162C141.045 180.598 140.131 179.741 140.025 178.631C139.74 175.601 139.006 172.63 137.851 169.818C137.441 168.818 137.816 167.67 138.753 167.13L139.154 166.897C140.117 166.342 141.33 166.241 142.413 166.101C142.413 166.101 143.012 166.013 143.712 165.933C144.896 165.798 145.626 164.94 145.466 163.495C145.402 162.916 145.199 162.33 144.894 161.804C144.59 161.276 144.184 160.808 143.716 160.463C142.542 159.602 141.437 159.806 140.727 160.763C140.307 161.329 139.931 161.805 139.931 161.805C139.269 162.673 138.576 163.672 137.612 164.229L137.342 164.385C136.374 164.943 135.152 164.656 134.506 163.746C132.777 161.309 130.669 159.103 128.213 157.216C127.353 156.556 127.103 155.371 127.644 154.435L127.88 154.028C128.436 153.063 129.435 152.371 130.304 151.709C130.304 151.709 130.779 151.332 131.345 150.913C132.302 150.204 132.507 149.096 131.645 147.925C131.3 147.455 130.832 147.05 130.304 146.745C129.778 146.442 129.192 146.238 128.613 146.175C127.168 146.014 126.31 146.745 126.174 147.928C126.095 148.628 126.008 149.227 126.008 149.227C125.867 150.311 125.766 151.522 125.211 152.487L125.047 152.769C124.49 153.737 123.288 154.1 122.274 153.634C119.453 152.336 116.519 151.498 113.564 151.103C112.489 150.959 111.681 150.06 111.681 148.978V148.519C111.681 147.406 112.199 146.307 112.62 145.299C112.62 145.299 112.844 144.736 113.125 144.089C113.6 142.997 113.222 141.934 111.89 141.351C111.357 141.117 110.749 141 110.14 141C109.531 141 108.922 141.117 108.389 141.351C107.057 141.934 106.681 142.997 107.154 144.089C107.436 144.736 107.659 145.299 107.659 145.299C108.08 146.307 108.598 147.406 108.598 148.519V148.839C108.598 149.956 107.742 150.87 106.631 150.975C103.602 151.262 100.63 151.994 97.8194 153.15C96.8197 153.561 95.6714 153.186 95.13 152.249L94.8983 151.847C94.3418 150.883 94.241 149.673 94.1013 148.589C94.1013 148.589 94.0132 147.989 93.9338 147.288C93.7991 146.106 92.9417 145.374 91.495 145.535C90.917 145.599 90.3316 145.802 89.804 146.107C89.2777 146.41 88.8093 146.816 88.4631 147.285C87.6018 148.458 87.8071 149.566 88.764 150.273C89.3306 150.694 89.8053 151.069 89.8053 151.069C90.6728 151.733 91.6725 152.425 92.229 153.388L92.3864 153.659C92.9442 154.627 92.6558 155.848 91.7455 156.496C89.3104 158.224 87.1032 160.332 85.2159 162.789C84.5574 163.647 83.3713 163.898 82.4345 163.356L82.0278 163.121C81.0634 162.564 80.3721 161.566 79.7086 160.697C79.7086 160.697 79.3321 160.223 78.9128 159.656C78.2052 158.699 77.0972 158.494 75.925 159.356C75.4554 159.701 75.0499 160.17 74.7465 160.696C74.4431 161.224 74.2391 161.809 74.1749 162.388C74.015 163.834 74.7452 164.691 75.9275 164.826C76.6288 164.906 77.2282 164.993 77.2282 164.993C78.3123 165.134 79.5235 165.234 80.4867 165.79L80.77 165.954C81.737 166.512 82.1009 167.713 81.6325 168.728C80.3356 171.548 79.4983 174.482 79.1042 177.437C78.9594 178.511 78.0617 179.319 76.9776 179.319H76.5193C75.4063 179.319 74.3071 178.801 73.2985 178.38C73.2985 178.38 72.7357 178.157 72.0886 177.876C70.9969 177.402 69.9355 177.778 69.3513 179.11C69.1171 179.644 69 180.252 69 180.862C69 181.47 69.1171 182.078 69.3513 182.612C69.9355 183.944 70.9969 184.32 72.0886 183.846C72.7357 183.565 73.2985 183.342 73.2985 183.342C74.3071 182.922 75.4063 182.403 76.5193 182.403H76.8404C77.9559 182.403 78.87 183.259 78.9745 184.369C79.2629 187.399 79.9957 190.37 81.1503 193.182C81.562 194.182 81.1855 195.33 80.2487 195.871L79.8483 196.103C78.8839 196.659 77.6726 196.759 76.5898 196.9C76.5898 196.9 75.9892 196.988 75.2879 197.067C74.1056 197.203 73.3753 198.06 73.5353 199.506C73.6007 200.084 73.8034 200.67 74.1069 201.196C74.4116 201.724 74.8158 202.192 75.2854 202.537C76.4576 203.399 77.5656 203.194 78.2745 202.237C78.6938 201.671 79.069 201.196 79.069 201.196C79.7325 200.327 80.425 199.329 81.3882 198.772L81.6602 198.616C82.6284 198.057 83.8485 198.344 84.4957 199.256C86.2244 201.691 88.3321 203.898 90.7899 205.784C91.6486 206.444 91.8979 207.629 91.3565 208.565L91.1223 208.973C90.5645 209.937 89.566 210.629 88.6985 211.291C88.6985 211.291 88.2226 211.668 87.656 212.087C86.6991 212.796 86.4951 213.904 87.3563 215.076C87.7013 215.545 88.1697 215.95 88.6973 216.255C89.2248 216.559 89.8103 216.762 90.3882 216.825C91.8349 216.986 92.6911 216.255 92.8258 215.072C92.9064 214.372 92.9945 213.773 92.9945 213.773C93.1343 212.689 93.2338 211.478 93.7915 210.515L93.9552 210.231C94.513 209.264 95.7129 208.9 96.7278 209.368C99.5481 210.666 102.482 211.502 105.438 211.897C106.511 212.041 107.321 212.94 107.321 214.024V214.482C107.321 215.595 106.802 216.694 106.381 217.703C106.381 217.703 106.157 218.266 105.876 218.913C105.402 220.004 105.778 221.066 107.111 221.65C107.645 221.884 108.253 222 108.86 222C109.47 222 110.078 221.884 110.612 221.65C111.945 221.066 112.322 220.004 111.847 218.913C111.565 218.266 111.342 217.703 111.342 217.703C110.922 216.694 110.403 215.595 110.403 214.482V214.161C110.403 213.045 111.26 212.13 112.371 212.025C115.399 211.738 118.37 211.006 121.182 209.85C122.183 209.439 123.331 209.816 123.871 210.751L124.103 211.154C124.659 212.117 124.759 213.329 124.9 214.411C124.9 214.411 124.988 215.012 125.069 215.712C125.203 216.894 126.06 217.626 127.506 217.465C128.084 217.402 128.67 217.198 129.197 216.894C129.724 216.59 130.192 216.184 130.537 215.715C131.399 214.542 131.195 213.436 130.239 212.727C129.672 212.307 129.196 211.931 129.196 211.931C128.327 211.269 127.329 210.576 126.772 209.612L126.616 209.341C126.057 208.374 126.344 207.152 127.256 206.506C129.691 204.777 131.898 202.669 133.784 200.211C134.444 199.353 135.629 199.103 136.565 199.644L136.973 199.879C137.937 200.436 138.629 201.434 139.293 202.303C139.293 202.303 139.668 202.779 140.088 203.344C140.797 204.302 141.904 204.506 143.076 203.644C143.545 203.299 143.951 202.83 144.255 202.304C144.559 201.776 144.762 201.191 144.826 200.613C144.988 199.166 144.256 198.31 143.072 198.174C142.374 198.095 141.773 198.007 141.773 198.007C140.69 197.867 139.479 197.766 138.515 197.21L138.233 197.046C137.264 196.488 136.9 195.287 137.368 194.274C138.666 191.453 139.502 188.518 139.897 185.563C140.041 184.489 140.941 183.681 142.024 183.681H142.483C143.595 183.681 144.694 184.199 145.703 184.62C145.703 184.62 146.266 184.844 146.913 185.125C148.004 185.598 149.066 185.222 149.65 183.89C149.884 183.356 150 182.748 150 182.14C150 181.531 149.884 180.922 149.65 180.389Z" stroke="white"/>
</g>
<g opacity="0.15">
<path fill-rule="evenodd" clip-rule="evenodd" d="M969.131 325.211C967.568 347.56 948.187 364.417 925.851 362.855C903.515 361.293 886.668 341.903 888.231 319.554C889.794 297.199 909.175 280.349 931.511 281.911C953.847 283.472 970.694 302.856 969.131 325.211Z" stroke="white"/>
<path fill-rule="evenodd" clip-rule="evenodd" d="M1065.09 494.971C1064.04 509.964 1051.05 521.268 1036.06 520.22C1021.08 519.173 1009.78 506.17 1010.83 491.177C1011.88 476.184 1024.88 464.88 1039.86 465.928C1054.84 466.976 1066.14 479.978 1065.09 494.971Z" stroke="white"/>
<path fill-rule="evenodd" clip-rule="evenodd" d="M914.765 423.73C913.716 438.723 900.72 450.027 885.735 448.979C870.75 447.931 859.454 434.929 860.502 419.936C861.551 404.943 874.547 393.639 889.532 394.687C904.517 395.735 915.813 408.737 914.765 423.73Z" stroke="white"/>
<path fill-rule="evenodd" clip-rule="evenodd" d="M1015.64 430.653C1014.59 445.646 1001.59 456.949 986.609 455.902C971.626 454.854 960.332 441.852 961.38 426.859C962.428 411.866 975.423 400.562 990.406 401.61C1005.39 402.657 1016.69 415.66 1015.64 430.653Z" stroke="white"/>
<path fill-rule="evenodd" clip-rule="evenodd" d="M1109.61 423.239C1108.83 434.411 1099.15 442.843 1087.97 442.061C1076.8 441.28 1068.38 431.582 1069.16 420.411C1069.95 409.239 1079.63 400.808 1090.8 401.589C1101.98 402.37 1110.4 412.068 1109.61 423.239Z" stroke="white"/>
<path fill-rule="evenodd" clip-rule="evenodd" d="M982.047 522.701C981.532 530.062 975.151 535.614 967.796 535.099C960.44 534.585 954.894 528.2 955.409 520.838C955.924 513.477 962.304 507.933 969.659 508.447C977.015 508.961 982.562 515.34 982.047 522.701Z" stroke="white"/>
<path fill-rule="evenodd" clip-rule="evenodd" d="M1055.24 338.645C1054.72 346.006 1048.34 351.557 1040.99 351.042C1033.63 350.528 1028.09 344.143 1028.6 336.782C1029.12 329.421 1035.49 323.876 1042.85 324.39C1050.21 324.904 1055.75 331.283 1055.24 338.645Z" stroke="white"/>
<path fill-rule="evenodd" clip-rule="evenodd" d="M1211.38 406.823C1208.56 398.935 1202.62 396.356 1196.17 398.635C1192.35 399.987 1189.03 401.048 1189.03 401.048C1183.07 403.057 1176.56 405.594 1170.18 405.148L1168.34 405.019C1161.93 404.571 1157.03 399.283 1156.87 392.866C1156.45 375.363 1153.43 358.012 1147.93 341.411C1145.98 335.508 1148.59 329.067 1154.18 326.342L1156.58 325.166C1162.33 322.366 1169.33 322.274 1175.6 321.906C1175.6 321.906 1179.07 321.64 1183.12 321.459C1189.96 321.16 1194.49 316.531 1194.16 308.171C1194.02 304.82 1193.09 301.378 1191.56 298.235C1190.02 295.085 1187.88 292.234 1185.33 290.065C1178.95 284.651 1172.52 285.379 1168.07 290.586C1165.43 293.67 1163.08 296.251 1163.08 296.251C1158.94 300.965 1154.56 306.426 1148.8 309.233L1147.2 310.021C1141.42 312.834 1134.52 310.696 1131.18 305.212C1122.24 290.534 1111.03 277.026 1097.7 265.207C1093.03 261.075 1092.08 254.175 1095.55 249.014L1097.07 246.775C1100.64 241.462 1106.66 237.888 1111.91 234.435C1111.91 234.435 1114.78 232.464 1118.2 230.285C1123.97 226.6 1125.6 220.322 1121.12 213.255C1119.33 210.421 1116.8 207.906 1113.9 205.945C1111 203.992 1107.72 202.587 1104.43 201.993C1096.2 200.488 1090.99 204.343 1089.73 211.075C1089 215.061 1088.26 218.467 1088.26 218.467C1087.01 224.633 1085.95 231.545 1082.38 236.858L1081.32 238.411C1077.74 243.745 1070.7 245.345 1065.06 242.264C1049.41 233.681 1032.91 227.698 1016.12 224.243C1010.01 222.988 1005.73 217.503 1006.16 211.288L1006.35 208.657C1006.8 202.269 1010.21 196.167 1013.03 190.547C1013.03 190.547 1014.54 187.407 1016.41 183.804C1019.57 177.729 1017.83 171.478 1010.42 167.597C1007.46 166.039 1004.02 165.123 1000.53 164.879C997.037 164.635 993.494 165.062 990.344 166.193C982.468 169.005 979.882 174.953 982.16 181.409C983.518 185.237 984.571 188.557 984.571 188.557C986.578 194.515 989.113 201.032 988.666 207.421L988.538 209.257C988.09 215.667 982.811 220.571 976.391 220.724C958.904 221.158 941.556 224.171 924.97 229.678C919.07 231.633 912.633 229.019 909.903 223.425L908.735 221.026C905.93 215.267 905.837 208.281 905.471 202.003C905.471 202.003 905.206 198.527 905.032 194.47C904.734 187.63 900.108 183.087 891.744 183.431C888.403 183.568 884.963 184.497 881.814 186.034C878.673 187.565 875.823 189.704 873.648 192.261C868.237 198.644 868.97 205.086 874.175 209.532C877.257 212.173 879.83 214.517 879.83 214.517C884.54 218.674 889.997 223.05 892.803 228.802L893.598 230.419C896.409 236.2 894.264 243.095 888.782 246.444C874.119 255.39 860.611 266.603 848.797 279.946C844.675 284.611 837.77 285.573 832.613 282.09L830.374 280.575C825.065 276.994 821.5 270.986 818.042 265.733C818.042 265.733 816.073 262.857 813.895 259.437C810.22 253.66 803.946 252.038 796.875 256.518C794.042 258.31 791.528 260.836 789.576 263.735C787.624 266.641 786.218 269.92 785.618 273.219C784.12 281.452 787.965 286.666 794.694 287.914C798.685 288.658 802.088 289.397 802.088 289.397C808.251 290.641 815.16 291.698 820.462 295.279L822.021 296.332C827.345 299.921 828.95 306.962 825.856 312.599C817.284 328.268 811.303 344.771 807.856 361.575C806.594 367.682 801.12 371.962 794.901 371.527L792.271 371.343C785.886 370.897 779.788 367.478 774.171 364.66C774.171 364.66 771.032 363.155 767.432 361.283C761.36 358.121 755.12 359.856 751.234 367.268C749.676 370.238 748.76 373.682 748.515 377.18C748.271 380.671 748.699 384.208 749.828 387.367C752.645 395.247 758.583 397.834 765.036 395.547C768.862 394.195 772.18 393.142 772.18 393.142C778.134 391.133 784.648 388.596 791.034 389.042L792.876 389.171C799.275 389.619 804.176 394.9 804.33 401.316C804.768 418.82 807.779 436.17 813.274 452.772C815.235 458.675 812.614 465.116 807.023 467.847L804.633 469.017C798.877 471.824 791.888 471.909 785.619 472.284C785.619 472.284 782.139 472.549 778.083 472.723C771.246 473.029 766.713 477.651 767.05 486.019C767.193 489.363 768.121 492.805 769.651 495.947C771.187 499.098 773.318 501.948 775.874 504.117C782.252 509.538 788.691 508.804 793.142 503.596C795.774 500.512 798.118 497.938 798.118 497.938C802.273 493.217 806.646 487.764 812.395 484.956L814.018 484.169C819.797 481.348 826.681 483.486 830.028 488.978C838.968 503.649 850.174 517.163 863.517 528.976C868.178 533.107 869.133 540.008 865.651 545.168L864.143 547.415C860.557 552.72 854.551 556.295 849.308 559.748C849.308 559.748 846.427 561.718 843.008 563.898C837.234 567.583 835.619 573.861 840.089 580.935C841.881 583.762 844.405 586.277 847.309 588.237C850.213 590.198 853.491 591.596 856.781 592.189C865.016 593.695 870.221 589.839 871.468 583.107C872.212 579.121 872.958 575.716 872.958 575.716C874.195 569.55 875.252 562.637 878.838 557.332L879.891 555.772C883.479 550.445 890.509 548.838 896.143 551.926C911.802 560.509 928.296 566.484 945.098 569.94C951.194 571.194 955.478 576.679 955.043 582.901L954.859 585.532C954.412 591.921 950.995 598.022 948.178 603.642C948.178 603.642 946.666 606.783 944.795 610.385C941.634 616.461 943.368 622.704 950.783 626.593C953.751 628.151 957.194 629.06 960.675 629.303C964.171 629.548 967.707 629.127 970.863 627.997C978.747 625.178 981.333 619.237 979.048 612.78C977.69 608.952 976.637 605.633 976.637 605.633C974.629 599.675 972.094 593.157 972.541 586.769L972.67 584.926C973.118 578.522 978.404 573.612 984.817 573.458C1002.3 573.025 1019.64 570.011 1036.24 564.504C1042.15 562.55 1048.58 565.171 1051.31 570.758L1052.47 573.163C1055.28 578.915 1055.36 585.908 1055.74 592.18C1055.74 592.18 1056 595.662 1056.18 599.713C1056.48 606.553 1061.1 611.096 1069.46 610.751C1072.8 610.622 1076.25 609.686 1079.39 608.155C1082.54 606.618 1085.38 604.478 1087.55 601.921C1092.97 595.539 1092.24 589.104 1087.04 584.651C1083.96 582.017 1081.38 579.665 1081.38 579.665C1076.66 575.515 1071.21 571.14 1068.4 565.381L1067.62 563.764C1064.8 557.99 1066.94 551.087 1072.43 547.745C1087.09 538.799 1100.6 527.586 1112.4 514.236C1116.53 509.571 1123.43 508.616 1128.59 512.092L1130.83 513.607C1136.14 517.188 1139.71 523.197 1143.17 528.45C1143.17 528.45 1145.13 531.332 1147.31 534.746C1150.99 540.53 1157.26 542.145 1164.33 537.664C1167.16 535.872 1169.68 533.347 1171.63 530.448C1173.59 527.542 1174.99 524.262 1175.59 520.971C1177.1 512.731 1173.24 507.523 1166.51 506.268C1162.53 505.532 1159.12 504.786 1159.12 504.786C1152.96 503.549 1146.06 502.485 1140.75 498.904L1139.19 497.851C1133.86 494.261 1132.26 487.22 1135.34 481.59C1143.92 465.922 1149.9 449.411 1153.35 432.607C1154.61 426.5 1160.1 422.221 1166.31 422.656L1168.94 422.84C1175.32 423.286 1181.42 426.704 1187.04 429.523C1187.04 429.523 1190.18 431.035 1193.78 432.906C1199.85 436.062 1206.09 434.327 1209.97 426.915C1211.53 423.944 1212.44 420.5 1212.68 417.009C1212.93 413.519 1212.51 409.974 1211.38 406.823Z" stroke="white"/>
</g>
<g opacity="0.15">
<path fill-rule="evenodd" clip-rule="evenodd" d="M76.0675 726.313C76.0675 733.949 69.875 740.141 62.2392 740.141C54.6035 740.141 48.411 733.949 48.411 726.313C48.411 718.675 54.6035 712.485 62.2392 712.485C69.875 712.485 76.0675 718.675 76.0675 726.313Z" stroke="white"/>
<path fill-rule="evenodd" clip-rule="evenodd" d="M112.613 781.626C112.613 786.536 108.634 790.515 103.725 790.515C98.816 790.515 94.8344 786.536 94.8344 781.626C94.8344 776.716 98.816 772.736 103.725 772.736C108.634 772.736 112.613 776.716 112.613 781.626Z" stroke="white"/>
<path fill-rule="evenodd" clip-rule="evenodd" d="M58.2884 761.871C58.2884 766.781 54.3086 770.761 49.3988 770.761C44.489 770.761 40.5092 766.781 40.5092 761.871C40.5092 756.961 44.489 752.982 49.3988 752.982C54.3086 752.982 58.2884 756.961 58.2884 761.871Z" stroke="white"/>
<path fill-rule="evenodd" clip-rule="evenodd" d="M92.8589 761.871C92.8589 766.781 88.8773 770.761 83.9681 770.761C79.059 770.761 75.0798 766.781 75.0798 761.871C75.0798 756.961 79.059 752.982 83.9681 752.982C88.8773 752.982 92.8589 756.961 92.8589 761.871Z" stroke="white"/>
<path fill-rule="evenodd" clip-rule="evenodd" d="M126.442 755.945C126.442 759.762 123.347 762.859 119.528 762.859C115.708 762.859 112.614 759.762 112.614 755.945C112.614 752.128 115.708 749.031 119.528 749.031C123.347 749.031 126.442 752.128 126.442 755.945Z" stroke="white"/>
<path fill-rule="evenodd" clip-rule="evenodd" d="M85.9448 793.477C85.9448 796.205 83.7335 798.417 81.0062 798.417C78.2788 798.417 76.0675 796.205 76.0675 793.477C76.0675 790.749 78.2788 788.54 81.0062 788.54C83.7335 788.54 85.9448 790.749 85.9448 793.477Z" stroke="white"/>
<path fill-rule="evenodd" clip-rule="evenodd" d="M106.687 729.275C106.687 732.003 104.475 734.215 101.747 734.215C99.0192 734.215 96.8098 732.003 96.8098 729.275C96.8098 726.547 99.0192 724.337 101.747 724.337C104.475 724.337 106.687 726.547 106.687 729.275Z" stroke="white"/>
<path fill-rule="evenodd" clip-rule="evenodd" d="M161.304 749.293C160.143 746.642 158.033 745.897 155.864 746.838C154.577 747.396 153.458 747.841 153.458 747.841C151.454 748.677 149.269 749.708 147.059 749.708H146.421C144.201 749.708 142.384 748.004 142.174 745.796C141.606 739.775 140.147 733.869 137.852 728.28C137.036 726.293 137.782 724.011 139.644 722.937L140.442 722.474C142.357 721.371 144.767 721.17 146.919 720.893C146.919 720.893 148.11 720.717 149.502 720.557C151.854 720.29 153.306 718.585 152.988 715.712C152.86 714.561 152.457 713.397 151.852 712.351C151.246 711.303 150.44 710.372 149.509 709.686C147.177 707.974 144.98 708.379 143.568 710.281C142.735 711.408 141.986 712.354 141.986 712.354C140.67 714.078 139.294 716.065 137.376 717.171L136.841 717.482C134.916 718.59 132.486 718.02 131.202 716.21C127.766 711.368 123.577 706.983 118.694 703.232C116.985 701.92 116.489 699.565 117.563 697.703L118.034 696.895C119.137 694.978 121.124 693.601 122.851 692.285C122.851 692.285 123.795 691.537 124.921 690.703C126.823 689.294 127.231 687.092 125.516 684.765C124.831 683.831 123.9 683.025 122.851 682.42C121.805 681.816 120.641 681.411 119.49 681.286C116.617 680.966 114.913 682.42 114.642 684.77C114.485 686.161 114.312 687.352 114.312 687.352C114.032 689.507 113.832 691.915 112.728 693.832L112.403 694.392C111.294 696.317 108.906 697.037 106.889 696.112C101.283 693.531 95.4522 691.867 89.5785 691.081C87.4413 690.796 85.8346 689.009 85.8346 686.857V685.946C85.8346 683.733 86.8657 681.549 87.7015 679.544C87.7015 679.544 88.147 678.425 88.7051 677.139C89.6486 674.969 88.8978 672.857 86.25 671.698C85.1914 671.233 83.9826 671 82.7713 671C81.5626 671 80.3513 671.233 79.2927 671.698C76.6449 672.857 75.8966 674.969 76.8376 677.139C77.3982 678.425 77.8411 679.544 77.8411 679.544C78.677 681.549 79.7081 683.733 79.7081 685.946V686.581C79.7081 688.801 78.0063 690.618 75.7965 690.826C69.7776 691.397 63.8689 692.853 58.283 695.151C56.2959 695.966 54.0135 695.221 52.9373 693.359L52.4769 692.56C51.3707 690.643 51.1705 688.238 50.8927 686.083C50.8927 686.083 50.7175 684.892 50.5598 683.498C50.292 681.148 48.5877 679.694 45.7122 680.015C44.5635 680.142 43.3998 680.545 42.3512 681.151C41.3051 681.754 40.3741 682.56 39.6858 683.493C37.974 685.823 38.382 688.025 40.284 689.432C41.4102 690.268 42.3537 691.014 42.3537 691.014C44.078 692.333 46.0651 693.709 47.1713 695.624L47.4841 696.162C48.5928 698.086 48.0196 700.514 46.2102 701.8C41.3701 705.236 36.983 709.426 33.2315 714.308C31.9227 716.015 29.5652 716.513 27.7032 715.437L26.8948 714.969C24.9778 713.863 23.6039 711.878 22.285 710.151C22.285 710.151 21.5367 709.208 20.7033 708.082C19.2968 706.18 17.0945 705.772 14.7645 707.486C13.831 708.172 13.0252 709.103 12.4221 710.149C11.8189 711.197 11.4135 712.361 11.2859 713.512C10.968 716.385 12.4196 718.09 14.7695 718.358C16.1635 718.518 17.3548 718.69 17.3548 718.69C19.5095 718.971 21.9171 719.168 23.8316 720.275L24.3947 720.6C26.3167 721.709 27.04 724.096 26.109 726.113C23.5313 731.719 21.867 737.55 21.0837 743.424C20.7959 745.559 19.0115 747.165 16.8567 747.165H15.9458C13.7334 747.165 11.5486 746.134 9.54402 745.298C9.54402 745.298 8.42534 744.855 7.13898 744.297C4.96919 743.354 2.85946 744.102 1.69824 746.75C1.23275 747.811 1 749.02 1 750.231C1 751.44 1.23275 752.649 1.69824 753.71C2.85946 756.358 4.96919 757.106 7.13898 756.162C8.42534 755.604 9.54402 755.161 9.54402 755.161C11.5486 754.325 13.7334 753.294 15.9458 753.294H16.584C18.8013 753.294 20.6182 754.996 20.8259 757.204C21.399 763.225 22.8556 769.131 25.1505 774.72C25.9689 776.707 25.2206 778.989 23.3586 780.065L22.5628 780.526C20.6457 781.632 18.2382 781.83 16.0859 782.11C16.0859 782.11 14.8922 782.285 13.4982 782.443C11.1482 782.713 9.69668 784.415 10.0145 787.29C10.1447 788.439 10.5476 789.603 11.1507 790.649C11.7564 791.697 12.5597 792.628 13.4932 793.314C15.8232 795.028 18.0255 794.621 19.4345 792.719C20.2678 791.592 21.0136 790.649 21.0136 790.649C22.3325 788.922 23.709 786.937 25.6235 785.831L26.1641 785.521C28.0886 784.41 30.5137 784.98 31.8 786.792C35.2362 791.632 39.4256 796.02 44.3107 799.768C46.0175 801.08 46.5131 803.435 45.4369 805.297L44.9714 806.108C43.8628 808.022 41.8782 809.399 40.1538 810.715C40.1538 810.715 39.2078 811.463 38.0817 812.297C36.1796 813.706 35.7742 815.908 37.486 818.238C38.1718 819.169 39.1027 819.975 40.1513 820.58C41.1999 821.186 42.3637 821.589 43.5124 821.714C46.3879 822.034 48.0897 820.58 48.3575 818.23C48.5177 816.839 48.6929 815.648 48.6929 815.648C48.9707 813.493 49.1684 811.085 50.277 809.171L50.6024 808.608C51.711 806.686 54.0961 805.963 56.1132 806.891C61.7191 809.471 67.5503 811.133 73.4265 811.919C75.5587 812.204 77.1679 813.991 77.1679 816.146V817.057C77.1679 819.269 76.1368 821.454 75.301 823.458C75.301 823.458 74.8555 824.577 74.2974 825.864C73.3539 828.033 74.1022 830.143 76.7525 831.304C77.8136 831.77 79.0224 832 80.2287 832C81.4399 832 82.6487 831.77 83.7098 831.304C86.3601 830.143 87.1084 828.033 86.1649 825.864C85.6043 824.577 85.1614 823.458 85.1614 823.458C84.3255 821.454 83.2944 819.269 83.2944 817.057V816.419C83.2944 814.201 84.9987 812.382 87.206 812.174C93.2249 811.603 99.1311 810.147 104.72 807.85C106.709 807.034 108.992 807.782 110.065 809.641L110.526 810.442C111.632 812.357 111.83 814.764 112.11 816.917C112.11 816.917 112.285 818.11 112.445 819.502C112.713 821.852 114.415 823.306 117.29 822.985C118.439 822.86 119.603 822.455 120.651 821.852C121.697 821.246 122.628 820.44 123.314 819.507C125.028 817.177 124.623 814.977 122.721 813.568C121.595 812.735 120.649 811.986 120.649 811.986C118.922 810.67 116.937 809.294 115.831 807.376L115.521 806.838C114.41 804.916 114.98 802.486 116.792 801.202C121.632 797.766 126.02 793.577 129.768 788.692C131.08 786.985 133.435 786.489 135.297 787.563L136.108 788.031C138.022 789.137 139.399 791.122 140.718 792.849C140.718 792.849 141.463 793.795 142.299 794.918C143.708 796.823 145.908 797.228 148.238 795.514C149.169 794.828 149.977 793.897 150.58 792.851C151.186 791.803 151.589 790.639 151.717 789.49C152.037 786.615 150.583 784.913 148.23 784.642C146.841 784.485 145.648 784.31 145.648 784.31C143.495 784.032 141.088 783.832 139.171 782.725L138.61 782.4C136.686 781.291 135.963 778.904 136.891 776.889C139.471 771.283 141.133 765.45 141.919 759.576C142.204 757.441 143.993 755.835 146.146 755.835H147.059C149.269 755.835 151.454 756.866 153.458 757.702C153.458 757.702 154.577 758.147 155.864 758.705C158.033 759.646 160.143 758.898 161.304 756.25C161.77 755.189 162 753.98 162 752.771C162 751.563 161.77 750.351 161.304 749.293Z" stroke="white"/>
</g>
<g opacity="0.15">
<path fill-rule="evenodd" clip-rule="evenodd" d="M785.603 737.965C785.603 751.627 774.524 762.707 760.862 762.707C747.2 762.707 736.121 751.627 736.121 737.965C736.121 724.299 747.2 713.224 760.862 713.224C774.524 713.224 785.603 724.299 785.603 737.965Z" stroke="white"/>
<path fill-rule="evenodd" clip-rule="evenodd" d="M850.921 835.941C850.921 844.687 843.833 851.776 835.088 851.776C826.344 851.776 819.252 844.687 819.252 835.941C819.252 827.196 826.344 820.107 835.088 820.107C843.833 820.107 850.921 827.196 850.921 835.941Z" stroke="white"/>
<path fill-rule="evenodd" clip-rule="evenodd" d="M753.934 801.303C753.934 810.049 746.846 817.138 738.1 817.138C729.354 817.138 722.266 810.049 722.266 801.303C722.266 792.558 729.354 785.469 738.1 785.469C746.846 785.469 753.934 792.558 753.934 801.303Z" stroke="white"/>
<path fill-rule="evenodd" clip-rule="evenodd" d="M815.293 801.303C815.293 810.049 808.201 817.138 799.456 817.138C790.712 817.138 783.624 810.049 783.624 801.303C783.624 792.558 790.712 785.469 799.456 785.469C808.201 785.469 815.293 792.558 815.293 801.303Z" stroke="white"/>
<path fill-rule="evenodd" clip-rule="evenodd" d="M875.662 790.912C875.662 797.741 870.125 803.283 863.291 803.283C856.458 803.283 850.921 797.741 850.921 790.912C850.921 784.083 856.458 778.541 863.291 778.541C870.125 778.541 875.662 784.083 875.662 790.912Z" stroke="white"/>
<path fill-rule="evenodd" clip-rule="evenodd" d="M803.417 857.712C803.417 862.632 799.429 866.621 794.51 866.621C789.592 866.621 785.603 862.632 785.603 857.712C785.603 852.792 789.592 848.807 794.51 848.807C799.429 848.807 803.417 852.792 803.417 857.712Z" stroke="white"/>
<path fill-rule="evenodd" clip-rule="evenodd" d="M840.034 742.912C840.034 747.832 836.045 751.821 831.125 751.821C826.205 751.821 822.221 747.832 822.221 742.912C822.221 737.992 826.205 734.007 831.125 734.007C836.045 734.007 840.034 737.992 840.034 742.912Z" stroke="white"/>
<path fill-rule="evenodd" clip-rule="evenodd" d="M937.76 778.565C935.69 773.841 931.929 772.511 928.061 774.189C925.768 775.184 923.774 775.978 923.774 775.978C920.2 777.468 916.306 779.306 912.366 779.306H911.229C907.272 779.306 904.033 776.268 903.658 772.333C902.645 761.599 900.045 751.071 895.954 741.109C894.499 737.566 895.829 733.498 899.148 731.584L900.571 730.759C903.984 728.791 908.28 728.434 912.117 727.939C912.117 727.939 914.24 727.627 916.721 727.341C920.914 726.864 923.502 723.826 922.935 718.704C922.708 716.652 921.989 714.578 920.91 712.713C919.83 710.844 918.394 709.184 916.734 707.962C912.576 704.91 908.659 705.633 906.143 709.024C904.657 711.031 903.324 712.717 903.324 712.717C900.977 715.791 898.523 719.333 895.106 721.305L894.151 721.858C890.721 723.835 886.389 722.818 884.1 719.592C877.975 710.96 870.507 703.144 861.803 696.456C858.756 694.119 857.872 689.921 859.786 686.601L860.625 685.16C862.592 681.743 866.135 679.289 869.213 676.943C869.213 676.943 870.895 675.609 872.902 674.123C876.293 671.612 877.02 667.686 873.964 663.537C872.742 661.873 871.082 660.436 869.213 659.357C867.348 658.281 865.274 657.559 863.222 657.336C858.1 656.765 855.062 659.357 854.58 663.546C854.299 666.026 853.991 668.15 853.991 668.15C853.492 671.991 853.135 676.283 851.167 679.7L850.587 680.699C848.611 684.13 844.355 685.415 840.759 683.764C830.766 679.164 820.371 676.198 809.901 674.797C806.091 674.288 803.227 671.103 803.227 667.266V665.642C803.227 661.699 805.065 657.804 806.555 654.231C806.555 654.231 807.349 652.236 808.344 649.943C810.026 646.076 808.687 642.31 803.967 640.245C802.08 639.415 799.926 639 797.766 639C795.612 639 793.452 639.415 791.565 640.245C786.845 642.31 785.511 646.076 787.189 649.943C788.188 652.236 788.978 654.231 788.978 654.231C790.468 657.804 792.306 661.699 792.306 665.642V666.776C792.306 670.733 789.272 673.972 785.333 674.342C774.604 675.359 764.071 677.955 754.113 682.051C750.571 683.505 746.502 682.176 744.584 678.857L743.763 677.434C741.791 674.016 741.434 669.729 740.939 665.888C740.939 665.888 740.627 663.764 740.346 661.279C739.868 657.09 736.83 654.498 731.704 655.069C729.657 655.297 727.582 656.015 725.713 657.095C723.848 658.17 722.189 659.606 720.962 661.27C717.91 665.424 718.637 669.35 722.028 671.857C724.036 673.347 725.717 674.676 725.717 674.676C728.791 677.028 732.333 679.481 734.305 682.894L734.863 683.853C736.839 687.284 735.818 691.611 732.592 693.904C723.964 700.03 716.144 707.498 709.456 716.202C707.123 719.244 702.921 720.132 699.601 718.214L698.16 717.379C694.743 715.408 692.294 711.87 689.943 708.792C689.943 708.792 688.609 707.11 687.123 705.102C684.616 701.712 680.69 700.984 676.537 704.04C674.873 705.263 673.436 706.922 672.361 708.787C671.286 710.656 670.563 712.731 670.336 714.783C669.769 719.904 672.357 722.943 676.546 723.42C679.031 723.705 681.154 724.013 681.154 724.013C684.995 724.513 689.287 724.865 692.7 726.837L693.704 727.417C697.13 729.393 698.419 733.65 696.76 737.245C692.164 747.238 689.198 757.633 687.801 768.104C687.288 771.909 684.107 774.773 680.266 774.773H678.642C674.699 774.773 670.804 772.935 667.231 771.445C667.231 771.445 665.236 770.655 662.943 769.661C659.076 767.979 655.315 769.313 653.245 774.033C652.415 775.924 652 778.079 652 780.238C652 782.393 652.415 784.548 653.245 786.439C655.315 791.159 659.076 792.493 662.943 790.811C665.236 789.816 667.231 789.027 667.231 789.027C670.804 787.537 674.699 785.699 678.642 785.699H679.78C683.733 785.699 686.972 788.732 687.342 792.667C688.364 803.401 690.96 813.929 695.051 823.891C696.51 827.434 695.176 831.502 691.857 833.421L690.438 834.241C687.021 836.213 682.729 836.566 678.892 837.065C678.892 837.065 676.764 837.378 674.279 837.659C670.09 838.14 667.503 841.174 668.069 846.3C668.301 848.348 669.02 850.422 670.095 852.287C671.174 854.156 672.606 855.816 674.27 857.038C678.424 860.094 682.35 859.367 684.861 855.977C686.347 853.969 687.676 852.287 687.676 852.287C690.028 849.209 692.481 845.671 695.894 843.699L696.858 843.146C700.288 841.165 704.611 842.182 706.904 845.412C713.03 854.04 720.498 861.861 729.206 868.544C732.249 870.881 733.132 875.079 731.214 878.399L730.384 879.844C728.408 883.257 724.87 885.711 721.796 888.057C721.796 888.057 720.11 889.391 718.102 890.877C714.712 893.388 713.989 897.314 717.04 901.468C718.263 903.127 719.922 904.564 721.792 905.643C723.661 906.723 725.735 907.441 727.783 907.664C732.909 908.235 735.943 905.643 736.42 901.454C736.705 898.974 737.018 896.85 737.018 896.85C737.513 893.009 737.865 888.717 739.842 885.305L740.422 884.301C742.398 880.875 746.65 879.585 750.245 881.24C760.238 885.84 770.633 888.802 781.108 890.203C784.909 890.712 787.778 893.897 787.778 897.738V899.362C787.778 903.306 785.94 907.2 784.45 910.774C784.45 910.774 783.655 912.768 782.661 915.061C780.979 918.929 782.313 922.69 787.037 924.76C788.929 925.59 791.083 926 793.234 926C795.393 926 797.548 925.59 799.439 924.76C804.164 922.69 805.498 918.929 803.816 915.061C802.816 912.768 802.027 910.774 802.027 910.774C800.537 907.2 798.699 903.306 798.699 899.362V898.224C798.699 894.272 801.737 891.028 805.672 890.658C816.401 889.641 826.929 887.045 836.891 882.949C840.438 881.495 844.507 882.829 846.421 886.143L847.241 887.571C849.213 890.984 849.566 895.275 850.065 899.112C850.065 899.112 850.378 901.24 850.663 903.721C851.14 907.91 854.174 910.502 859.3 909.931C861.348 909.708 863.422 908.985 865.292 907.91C867.156 906.83 868.816 905.394 870.038 903.73C873.094 899.576 872.371 895.655 868.981 893.143C866.973 891.657 865.287 890.324 865.287 890.324C862.209 887.977 858.671 885.523 856.699 882.106L856.146 881.147C854.165 877.721 855.182 873.389 858.412 871.1C867.04 864.975 874.861 857.507 881.544 848.798C883.881 845.756 888.079 844.872 891.399 846.786L892.844 847.621C896.257 849.592 898.711 853.13 901.062 856.208C901.062 856.208 902.391 857.895 903.881 859.898C906.393 863.293 910.314 864.016 914.468 860.96C916.127 859.737 917.568 858.078 918.643 856.213C919.723 854.344 920.441 852.269 920.669 850.222C921.24 845.096 918.648 842.062 914.454 841.58C911.978 841.299 909.85 840.987 909.85 840.987C906.014 840.492 901.722 840.135 898.305 838.163L897.305 837.583C893.875 835.607 892.585 831.35 894.24 827.759C898.84 817.766 901.802 807.367 903.203 796.896C903.712 793.091 906.901 790.227 910.738 790.227H912.366C916.306 790.227 920.2 792.065 923.774 793.555C923.774 793.555 925.768 794.349 928.061 795.344C931.929 797.021 935.69 795.687 937.76 790.967C938.59 789.076 939 786.921 939 784.766C939 782.612 938.59 780.452 937.76 778.565Z" stroke="white"/>
</g>
<g opacity="0.15">
<path fill-rule="evenodd" clip-rule="evenodd" d="M785.603 737.965C785.603 751.627 774.524 762.707 760.862 762.707C747.2 762.707 736.121 751.627 736.121 737.965C736.121 724.299 747.2 713.224 760.862 713.224C774.524 713.224 785.603 724.299 785.603 737.965Z" stroke="white"/>
<path fill-rule="evenodd" clip-rule="evenodd" d="M850.921 835.941C850.921 844.687 843.833 851.776 835.088 851.776C826.344 851.776 819.252 844.687 819.252 835.941C819.252 827.196 826.344 820.107 835.088 820.107C843.833 820.107 850.921 827.196 850.921 835.941Z" stroke="white"/>
<path fill-rule="evenodd" clip-rule="evenodd" d="M753.934 801.303C753.934 810.049 746.846 817.138 738.1 817.138C729.354 817.138 722.266 810.049 722.266 801.303C722.266 792.558 729.354 785.469 738.1 785.469C746.846 785.469 753.934 792.558 753.934 801.303Z" stroke="white"/>
<path fill-rule="evenodd" clip-rule="evenodd" d="M815.293 801.303C815.293 810.049 808.201 817.138 799.456 817.138C790.712 817.138 783.624 810.049 783.624 801.303C783.624 792.558 790.712 785.469 799.456 785.469C808.201 785.469 815.293 792.558 815.293 801.303Z" stroke="white"/>
<path fill-rule="evenodd" clip-rule="evenodd" d="M875.662 790.912C875.662 797.741 870.125 803.283 863.291 803.283C856.458 803.283 850.921 797.741 850.921 790.912C850.921 784.083 856.458 778.541 863.291 778.541C870.125 778.541 875.662 784.083 875.662 790.912Z" stroke="white"/>
<path fill-rule="evenodd" clip-rule="evenodd" d="M803.417 857.712C803.417 862.632 799.429 866.621 794.51 866.621C789.592 866.621 785.603 862.632 785.603 857.712C785.603 852.792 789.592 848.807 794.51 848.807C799.429 848.807 803.417 852.792 803.417 857.712Z" stroke="white"/>
<path fill-rule="evenodd" clip-rule="evenodd" d="M840.034 742.912C840.034 747.832 836.045 751.821 831.125 751.821C826.205 751.821 822.221 747.832 822.221 742.912C822.221 737.992 826.205 734.007 831.125 734.007C836.045 734.007 840.034 737.992 840.034 742.912Z" stroke="white"/>
<path fill-rule="evenodd" clip-rule="evenodd" d="M937.76 778.565C935.69 773.841 931.929 772.511 928.061 774.189C925.768 775.184 923.774 775.978 923.774 775.978C920.2 777.468 916.306 779.306 912.366 779.306H911.229C907.272 779.306 904.033 776.268 903.658 772.333C902.645 761.599 900.045 751.071 895.954 741.109C894.499 737.566 895.829 733.498 899.148 731.584L900.571 730.759C903.984 728.791 908.28 728.434 912.117 727.939C912.117 727.939 914.24 727.627 916.721 727.341C920.914 726.864 923.502 723.826 922.935 718.704C922.708 716.652 921.989 714.578 920.91 712.713C919.83 710.844 918.394 709.184 916.734 707.962C912.576 704.91 908.659 705.633 906.143 709.024C904.657 711.031 903.324 712.717 903.324 712.717C900.977 715.791 898.523 719.333 895.106 721.305L894.151 721.858C890.721 723.835 886.389 722.818 884.1 719.592C877.975 710.96 870.507 703.144 861.803 696.456C858.756 694.119 857.872 689.921 859.786 686.601L860.625 685.16C862.592 681.743 866.135 679.289 869.213 676.943C869.213 676.943 870.895 675.609 872.902 674.123C876.293 671.612 877.02 667.686 873.964 663.537C872.742 661.873 871.082 660.436 869.213 659.357C867.348 658.281 865.274 657.559 863.222 657.336C858.1 656.765 855.062 659.357 854.58 663.546C854.299 666.026 853.991 668.15 853.991 668.15C853.492 671.991 853.135 676.283 851.167 679.7L850.587 680.699C848.611 684.13 844.355 685.415 840.759 683.764C830.766 679.164 820.371 676.198 809.901 674.797C806.091 674.288 803.227 671.103 803.227 667.266V665.642C803.227 661.699 805.065 657.804 806.555 654.231C806.555 654.231 807.349 652.236 808.344 649.943C810.026 646.076 808.687 642.31 803.967 640.245C802.08 639.415 799.926 639 797.766 639C795.612 639 793.452 639.415 791.565 640.245C786.845 642.31 785.511 646.076 787.189 649.943C788.188 652.236 788.978 654.231 788.978 654.231C790.468 657.804 792.306 661.699 792.306 665.642V666.776C792.306 670.733 789.272 673.972 785.333 674.342C774.604 675.359 764.071 677.955 754.113 682.051C750.571 683.505 746.502 682.176 744.584 678.857L743.763 677.434C741.791 674.016 741.434 669.729 740.939 665.888C740.939 665.888 740.627 663.764 740.346 661.279C739.868 657.09 736.83 654.498 731.704 655.069C729.657 655.297 727.582 656.015 725.713 657.095C723.848 658.17 722.189 659.606 720.962 661.27C717.91 665.424 718.637 669.35 722.028 671.857C724.036 673.347 725.717 674.676 725.717 674.676C728.791 677.028 732.333 679.481 734.305 682.894L734.863 683.853C736.839 687.284 735.818 691.611 732.592 693.904C723.964 700.03 716.144 707.498 709.456 716.202C707.123 719.244 702.921 720.132 699.601 718.214L698.16 717.379C694.743 715.408 692.294 711.87 689.943 708.792C689.943 708.792 688.609 707.11 687.123 705.102C684.616 701.712 680.69 700.984 676.537 704.04C674.873 705.263 673.436 706.922 672.361 708.787C671.286 710.656 670.563 712.731 670.336 714.783C669.769 719.904 672.357 722.943 676.546 723.42C679.031 723.705 681.154 724.013 681.154 724.013C684.995 724.513 689.287 724.865 692.7 726.837L693.704 727.417C697.13 729.393 698.419 733.65 696.76 737.245C692.164 747.238 689.198 757.633 687.801 768.104C687.288 771.909 684.107 774.773 680.266 774.773H678.642C674.699 774.773 670.804 772.935 667.231 771.445C667.231 771.445 665.236 770.655 662.943 769.661C659.076 767.979 655.315 769.313 653.245 774.033C652.415 775.924 652 778.079 652 780.238C652 782.393 652.415 784.548 653.245 786.439C655.315 791.159 659.076 792.493 662.943 790.811C665.236 789.816 667.231 789.027 667.231 789.027C670.804 787.537 674.699 785.699 678.642 785.699H679.78C683.733 785.699 686.972 788.732 687.342 792.667C688.364 803.401 690.96 813.929 695.051 823.891C696.51 827.434 695.176 831.502 691.857 833.421L690.438 834.241C687.021 836.213 682.729 836.566 678.892 837.065C678.892 837.065 676.764 837.378 674.279 837.659C670.09 838.14 667.503 841.174 668.069 846.3C668.301 848.348 669.02 850.422 670.095 852.287C671.174 854.156 672.606 855.816 674.27 857.038C678.424 860.094 682.35 859.367 684.861 855.977C686.347 853.969 687.676 852.287 687.676 852.287C690.028 849.209 692.481 845.671 695.894 843.699L696.858 843.146C700.288 841.165 704.611 842.182 706.904 845.412C713.03 854.04 720.498 861.861 729.206 868.544C732.249 870.881 733.132 875.079 731.214 878.399L730.384 879.844C728.408 883.257 724.87 885.711 721.796 888.057C721.796 888.057 720.11 889.391 718.102 890.877C714.712 893.388 713.989 897.314 717.04 901.468C718.263 903.127 719.922 904.564 721.792 905.643C723.661 906.723 725.735 907.441 727.783 907.664C732.909 908.235 735.943 905.643 736.42 901.454C736.705 898.974 737.018 896.85 737.018 896.85C737.513 893.009 737.865 888.717 739.842 885.305L740.422 884.301C742.398 880.875 746.65 879.585 750.245 881.24C760.238 885.84 770.633 888.802 781.108 890.203C784.909 890.712 787.778 893.897 787.778 897.738V899.362C787.778 903.306 785.94 907.2 784.45 910.774C784.45 910.774 783.655 912.768 782.661 915.061C780.979 918.929 782.313 922.69 787.037 924.76C788.929 925.59 791.083 926 793.234 926C795.393 926 797.548 925.59 799.439 924.76C804.164 922.69 805.498 918.929 803.816 915.061C802.816 912.768 802.027 910.774 802.027 910.774C800.537 907.2 798.699 903.306 798.699 899.362V898.224C798.699 894.272 801.737 891.028 805.672 890.658C816.401 889.641 826.929 887.045 836.891 882.949C840.438 881.495 844.507 882.829 846.421 886.143L847.241 887.571C849.213 890.984 849.566 895.275 850.065 899.112C850.065 899.112 850.378 901.24 850.663 903.721C851.14 907.91 854.174 910.502 859.3 909.931C861.348 909.708 863.422 908.985 865.292 907.91C867.156 906.83 868.816 905.394 870.038 903.73C873.094 899.576 872.371 895.655 868.981 893.143C866.973 891.657 865.287 890.324 865.287 890.324C862.209 887.977 858.671 885.523 856.699 882.106L856.146 881.147C854.165 877.721 855.182 873.389 858.412 871.1C867.04 864.975 874.861 857.507 881.544 848.798C883.881 845.756 888.079 844.872 891.399 846.786L892.844 847.621C896.257 849.592 898.711 853.13 901.062 856.208C901.062 856.208 902.391 857.895 903.881 859.898C906.393 863.293 910.314 864.016 914.468 860.96C916.127 859.737 917.568 858.078 918.643 856.213C919.723 854.344 920.441 852.269 920.669 850.222C921.24 845.096 918.648 842.062 914.454 841.58C911.978 841.299 909.85 840.987 909.85 840.987C906.014 840.492 901.722 840.135 898.305 838.163L897.305 837.583C893.875 835.607 892.585 831.35 894.24 827.759C898.84 817.766 901.802 807.367 903.203 796.896C903.712 793.091 906.901 790.227 910.738 790.227H912.366C916.306 790.227 920.2 792.065 923.774 793.555C923.774 793.555 925.768 794.349 928.061 795.344C931.929 797.021 935.69 795.687 937.76 790.967C938.59 789.076 939 786.921 939 784.766C939 782.612 938.59 780.452 937.76 778.565Z" stroke="white"/>
</g>
<g opacity="0.15">
<path fill-rule="evenodd" clip-rule="evenodd" d="M1309.6 62.9714C1309.6 74.4253 1300.32 83.7142 1288.86 83.7142C1277.41 83.7142 1268.12 74.4253 1268.12 62.9714C1268.12 51.5136 1277.41 42.2285 1288.86 42.2285C1300.32 42.2285 1309.6 51.5136 1309.6 62.9714Z" stroke="white"/>
<path fill-rule="evenodd" clip-rule="evenodd" d="M1364.92 146.437C1364.92 153.802 1358.95 159.771 1351.59 159.771C1344.22 159.771 1338.25 153.802 1338.25 146.437C1338.25 139.072 1344.22 133.102 1351.59 133.102C1358.95 133.102 1364.92 139.072 1364.92 146.437Z" stroke="white"/>
<path fill-rule="evenodd" clip-rule="evenodd" d="M1282.93 116.804C1282.93 124.169 1276.96 130.139 1269.6 130.139C1262.24 130.139 1256.27 124.169 1256.27 116.804C1256.27 109.439 1262.24 103.469 1269.6 103.469C1276.96 103.469 1282.93 109.439 1282.93 116.804Z" stroke="white"/>
<path fill-rule="evenodd" clip-rule="evenodd" d="M1334.3 116.804C1334.3 124.169 1328.33 130.139 1320.96 130.139C1313.6 130.139 1307.63 124.169 1307.63 116.804C1307.63 109.439 1313.6 103.469 1320.96 103.469C1328.33 103.469 1334.3 109.439 1334.3 116.804Z" stroke="white"/>
<path fill-rule="evenodd" clip-rule="evenodd" d="M1385.66 107.914C1385.66 113.64 1381.02 118.286 1375.29 118.286C1369.56 118.286 1364.92 113.64 1364.92 107.914C1364.92 102.189 1369.56 97.5428 1375.29 97.5428C1381.02 97.5428 1385.66 102.189 1385.66 107.914Z" stroke="white"/>
<path fill-rule="evenodd" clip-rule="evenodd" d="M1324.42 164.214C1324.42 168.307 1321.1 171.624 1317.01 171.624C1312.92 171.624 1309.6 168.307 1309.6 164.214C1309.6 160.122 1312.92 156.808 1317.01 156.808C1321.1 156.808 1324.42 160.122 1324.42 164.214Z" stroke="white"/>
<path fill-rule="evenodd" clip-rule="evenodd" d="M1355.04 67.4145C1355.04 71.5067 1351.72 74.8245 1347.63 74.8245C1343.54 74.8245 1340.22 71.5067 1340.22 67.4145C1340.22 63.3224 1343.54 60.0082 1347.63 60.0082C1351.72 60.0082 1355.04 63.3224 1355.04 67.4145Z" stroke="white"/>
<path fill-rule="evenodd" clip-rule="evenodd" d="M1437.95 97.6822C1436.21 93.6985 1433.04 92.5775 1429.78 93.9919C1427.84 94.8307 1426.16 95.5003 1426.16 95.5003C1423.15 96.7568 1419.86 98.3066 1416.54 98.3066H1415.58C1412.25 98.3066 1409.52 95.7449 1409.2 92.427C1408.35 83.3763 1406.15 74.4986 1402.7 66.0986C1401.48 63.1118 1402.6 59.6811 1405.4 58.0673L1406.6 57.3714C1409.47 55.7125 1413.1 55.4115 1416.33 54.994C1416.33 54.994 1418.12 54.7306 1420.21 54.4899C1423.75 54.0874 1425.93 51.5256 1425.45 47.2072C1425.26 45.4768 1424.66 43.7276 1423.75 42.1552C1422.84 40.579 1421.62 39.1796 1420.23 38.1489C1416.72 35.5759 1413.42 36.1853 1411.29 39.0442C1410.04 40.737 1408.92 42.1589 1408.92 42.1589C1406.94 44.7508 1404.87 47.7376 1401.99 49.4003L1401.18 49.8667C1398.29 51.5332 1394.64 50.6755 1392.71 47.9558C1387.54 40.6768 1381.25 34.0862 1373.91 28.4474C1371.34 26.4762 1370.59 22.9365 1372.21 20.1377L1372.91 18.9227C1374.57 16.0412 1377.56 13.9722 1380.16 11.9936C1380.16 11.9936 1381.57 10.8688 1383.27 9.61615C1386.13 7.49829 1386.74 4.18796 1384.16 0.689548C1383.13 -0.713579 1381.73 -1.92486 1380.16 -2.8352C1378.58 -3.74178 1376.83 -4.35118 1375.1 -4.53926C1370.78 -5.02077 1368.22 -2.8352 1367.82 0.697071C1367.58 2.7886 1367.32 4.57918 1367.32 4.57918C1366.9 7.81804 1366.6 11.4368 1364.94 14.3183L1364.45 15.1609C1362.78 18.0537 1359.19 19.1371 1356.16 17.7453C1347.74 13.8669 1338.97 11.3654 1330.14 10.1842C1326.93 9.75533 1324.52 7.06945 1324.52 3.83436V2.46509C1324.52 -0.860287 1326.07 -4.14428 1327.32 -7.15743C1327.32 -7.15743 1327.99 -8.83893 1328.83 -10.7725C1330.25 -14.0339 1329.12 -17.2088 1325.14 -18.9505C1323.55 -19.6502 1321.73 -20 1319.91 -20C1318.09 -20 1316.27 -19.6502 1314.68 -18.9505C1310.7 -17.2088 1309.58 -14.0339 1310.99 -10.7725C1311.83 -8.83893 1312.5 -7.15743 1312.5 -7.15743C1313.76 -4.14428 1315.31 -0.860287 1315.31 2.46509V3.42057C1315.31 6.75723 1312.75 9.48825 1309.43 9.80047C1300.38 10.6581 1291.5 12.8475 1283.1 16.3008C1280.12 17.5271 1276.68 16.4061 1275.07 13.6073L1274.38 12.4074C1272.71 9.52587 1272.41 5.91084 1271.99 2.67198C1271.99 2.67198 1271.73 0.881397 1271.49 -1.21389C1271.09 -4.74616 1268.53 -6.93173 1264.21 -6.45023C1262.48 -6.25838 1260.73 -5.65274 1259.16 -4.7424C1257.58 -3.83582 1256.18 -2.62454 1255.15 -1.22141C1252.58 2.28076 1253.19 5.59109 1256.05 7.70518C1257.74 8.9616 1259.16 10.0826 1259.16 10.0826C1261.75 12.065 1264.74 14.134 1266.4 17.0117L1266.87 17.8205C1268.54 20.7133 1267.68 24.3622 1264.96 26.2957C1257.68 31.4605 1251.09 37.7577 1245.45 45.0968C1243.48 47.6623 1239.94 48.4109 1237.14 46.7934L1235.92 46.0899C1233.04 44.4273 1230.98 41.4442 1228.99 38.8486C1228.99 38.8486 1227.87 37.4304 1226.62 35.7376C1224.5 32.8787 1221.19 32.2656 1217.69 34.8424C1216.29 35.8731 1215.08 37.2724 1214.17 38.8448C1213.26 40.421 1212.65 42.1702 1212.46 43.9006C1211.98 48.2191 1214.16 50.7808 1217.7 51.1833C1219.79 51.4241 1221.58 51.6836 1221.58 51.6836C1224.82 52.105 1228.44 52.4021 1231.32 54.0648L1232.16 54.5538C1235.05 56.2203 1236.14 59.809 1234.74 62.841C1230.87 71.2672 1228.37 80.0321 1227.19 88.8609C1226.76 92.0696 1224.07 94.4847 1220.83 94.4847H1219.47C1216.14 94.4847 1212.86 92.9348 1209.84 91.6784C1209.84 91.6784 1208.16 91.0126 1206.23 90.1737C1202.97 88.7555 1199.79 89.8803 1198.05 93.8602C1197.35 95.4552 1197 97.2721 1197 99.0928C1197 100.91 1197.35 102.727 1198.05 104.322C1199.79 108.302 1202.97 109.426 1206.23 108.008C1208.16 107.169 1209.84 106.503 1209.84 106.503C1212.86 105.247 1216.14 103.697 1219.47 103.697H1220.42C1223.76 103.697 1226.49 106.255 1226.8 109.573C1227.66 118.624 1229.85 127.501 1233.3 135.901C1234.53 138.888 1233.41 142.319 1230.61 143.936L1229.41 144.629C1226.53 146.291 1222.91 146.588 1219.68 147.01C1219.68 147.01 1217.88 147.273 1215.79 147.51C1212.25 147.916 1210.07 150.474 1210.55 154.797C1210.75 156.523 1211.35 158.272 1212.26 159.845C1213.17 161.421 1214.38 162.82 1215.78 163.851C1219.28 166.428 1222.59 165.815 1224.71 162.956C1225.96 161.263 1227.08 159.845 1227.08 159.845C1229.07 157.249 1231.13 154.266 1234.01 152.604L1234.82 152.137C1237.72 150.467 1241.36 151.325 1243.3 154.048C1248.46 161.323 1254.76 167.918 1262.1 173.553C1264.67 175.524 1265.41 179.064 1263.79 181.862L1263.09 183.081C1261.43 185.959 1258.44 188.028 1255.85 190.006C1255.85 190.006 1254.43 191.131 1252.74 192.384C1249.88 194.502 1249.27 197.812 1251.84 201.314C1252.87 202.714 1254.27 203.925 1255.85 204.835C1257.42 205.746 1259.17 206.351 1260.9 206.539C1265.22 207.021 1267.78 204.835 1268.18 201.303C1268.42 199.211 1268.69 197.421 1268.69 197.421C1269.1 194.182 1269.4 190.563 1271.07 187.685L1271.56 186.839C1273.22 183.95 1276.81 182.863 1279.84 184.258C1288.27 188.137 1297.03 190.635 1305.86 191.816C1309.07 192.245 1311.49 194.931 1311.49 198.169V199.539C1311.49 202.864 1309.94 206.148 1308.68 209.161C1308.68 209.161 1308.01 210.843 1307.17 212.776C1305.76 216.038 1306.88 219.209 1310.86 220.954C1312.46 221.654 1314.28 222 1316.09 222C1317.91 222 1319.73 221.654 1321.32 220.954C1325.31 219.209 1326.43 216.038 1325.01 212.776C1324.17 210.843 1323.5 209.161 1323.5 209.161C1322.25 206.148 1320.7 202.864 1320.7 199.539V198.579C1320.7 195.247 1323.26 192.512 1326.58 192.2C1335.62 191.342 1344.5 189.153 1352.9 185.699C1355.89 184.473 1359.32 185.598 1360.94 188.393L1361.63 189.596C1363.29 192.474 1363.59 196.093 1364.01 199.328C1364.01 199.328 1364.27 201.122 1364.51 203.214C1364.92 206.746 1367.47 208.932 1371.8 208.45C1373.52 208.262 1375.27 207.653 1376.85 206.746C1378.42 205.836 1379.82 204.625 1380.85 203.221C1383.43 199.719 1382.82 196.413 1379.96 194.295C1378.27 193.042 1376.84 191.917 1376.84 191.917C1374.25 189.939 1371.27 187.87 1369.6 184.988L1369.14 184.18C1367.47 181.29 1368.32 177.638 1371.05 175.708C1378.32 170.543 1384.92 164.246 1390.55 156.903C1392.52 154.338 1396.06 153.593 1398.86 155.207L1400.08 155.91C1402.96 157.573 1405.03 160.556 1407.01 163.151C1407.01 163.151 1408.13 164.573 1409.39 166.262C1411.51 169.125 1414.81 169.734 1418.31 167.158C1419.71 166.127 1420.93 164.728 1421.84 163.155C1422.75 161.579 1423.35 159.83 1423.54 158.103C1424.02 153.781 1421.84 151.223 1418.3 150.817C1416.22 150.58 1414.42 150.316 1414.42 150.316C1411.19 149.899 1407.57 149.598 1404.69 147.935L1403.84 147.446C1400.95 145.78 1399.86 142.191 1401.26 139.163C1405.14 130.737 1407.63 121.968 1408.82 113.139C1409.24 109.93 1411.93 107.515 1415.17 107.515H1416.54C1419.86 107.515 1423.15 109.065 1426.16 110.322C1426.16 110.322 1427.84 110.991 1429.78 111.83C1433.04 113.244 1436.21 112.12 1437.95 108.14C1438.65 106.545 1439 104.728 1439 102.911C1439 101.094 1438.65 99.2734 1437.95 97.6822Z" stroke="white"/>
</g>
<g opacity="0.15">
<path fill-rule="evenodd" clip-rule="evenodd" d="M482.536 269.661C482.536 272.372 480.337 274.571 477.625 274.571C474.913 274.571 472.714 272.372 472.714 269.661C472.714 266.948 474.913 264.75 477.625 264.75C480.337 264.75 482.536 266.948 482.536 269.661Z" stroke="white"/>
<path fill-rule="evenodd" clip-rule="evenodd" d="M495.304 289.304C495.304 290.931 493.985 292.25 492.358 292.25C490.73 292.25 489.411 290.931 489.411 289.304C489.411 287.676 490.73 286.357 492.358 286.357C493.985 286.357 495.304 287.676 495.304 289.304Z" stroke="white"/>
<path fill-rule="evenodd" clip-rule="evenodd" d="M476.643 282.429C476.643 284.056 475.324 285.375 473.696 285.375C472.069 285.375 470.75 284.056 470.75 282.429C470.75 280.801 472.069 279.482 473.696 279.482C475.324 279.482 476.643 280.801 476.643 282.429Z" stroke="white"/>
<path fill-rule="evenodd" clip-rule="evenodd" d="M488.429 282.429C488.429 284.056 487.109 285.375 485.482 285.375C483.855 285.375 482.536 284.056 482.536 282.429C482.536 280.801 483.855 279.482 485.482 279.482C487.109 279.482 488.429 280.801 488.429 282.429Z" stroke="white"/>
<path fill-rule="evenodd" clip-rule="evenodd" d="M500.214 279.973C500.214 281.329 499.115 282.429 497.759 282.429C496.403 282.429 495.304 281.329 495.304 279.973C495.304 278.618 496.403 277.518 497.759 277.518C499.115 277.518 500.214 278.618 500.214 279.973Z" stroke="white"/>
<path fill-rule="evenodd" clip-rule="evenodd" d="M485.482 292.741C485.482 293.554 484.823 294.214 484.009 294.214C483.195 294.214 482.536 293.554 482.536 292.741C482.536 291.927 483.195 291.268 484.009 291.268C484.823 291.268 485.482 291.927 485.482 292.741Z" stroke="white"/>
<path fill-rule="evenodd" clip-rule="evenodd" d="M493.339 271.134C493.339 271.947 492.679 272.607 491.866 272.607C491.052 272.607 490.393 271.947 490.393 271.134C490.393 270.32 491.052 269.661 491.866 269.661C492.679 269.661 493.339 270.32 493.339 271.134Z" stroke="white"/>
<path fill-rule="evenodd" clip-rule="evenodd" d="M511.762 277.746C511.366 276.841 510.645 276.586 509.904 276.907C509.464 277.098 509.082 277.25 509.082 277.25C508.397 277.536 507.651 277.888 506.896 277.888H506.678C505.92 277.888 505.299 277.306 505.227 276.552C505.033 274.495 504.535 272.477 503.751 270.568C503.472 269.889 503.727 269.109 504.363 268.743L504.636 268.584C505.29 268.207 506.113 268.139 506.848 268.044C506.848 268.044 507.255 267.984 507.73 267.93C508.534 267.838 509.03 267.256 508.921 266.274C508.878 265.881 508.74 265.484 508.533 265.126C508.326 264.768 508.051 264.45 507.733 264.216C506.936 263.631 506.186 263.769 505.703 264.419C505.419 264.804 505.163 265.127 505.163 265.127C504.713 265.716 504.243 266.395 503.588 266.773L503.405 266.879C502.748 267.258 501.918 267.063 501.479 266.444C500.305 264.79 498.874 263.292 497.206 262.011C496.622 261.563 496.453 260.758 496.82 260.122L496.98 259.846C497.357 259.191 498.036 258.721 498.626 258.271C498.626 258.271 498.948 258.016 499.333 257.731C499.983 257.25 500.122 256.497 499.537 255.702C499.302 255.383 498.984 255.108 498.626 254.901C498.269 254.695 497.871 254.557 497.478 254.514C496.497 254.404 495.914 254.901 495.822 255.704C495.768 256.179 495.709 256.586 495.709 256.586C495.613 257.322 495.545 258.145 495.168 258.8L495.057 258.991C494.678 259.649 493.862 259.895 493.173 259.578C491.258 258.697 489.266 258.128 487.26 257.86C486.53 257.763 485.981 257.152 485.981 256.417V256.106C485.981 255.35 486.333 254.604 486.619 253.919C486.619 253.919 486.771 253.537 486.961 253.097C487.284 252.356 487.027 251.634 486.123 251.239C485.761 251.08 485.348 251 484.934 251C484.521 251 484.108 251.08 483.746 251.239C482.841 251.634 482.586 252.356 482.907 253.097C483.099 253.537 483.25 253.919 483.25 253.919C483.536 254.604 483.888 255.35 483.888 256.106V256.323C483.888 257.081 483.307 257.702 482.552 257.773C480.495 257.968 478.477 258.465 476.569 259.25C475.89 259.529 475.11 259.274 474.743 258.638L474.585 258.365C474.207 257.71 474.139 256.889 474.044 256.153C474.044 256.153 473.984 255.746 473.93 255.27C473.839 254.467 473.257 253.97 472.274 254.079C471.882 254.123 471.484 254.261 471.126 254.468C470.769 254.674 470.451 254.949 470.216 255.268C469.631 256.064 469.77 256.816 470.42 257.297C470.805 257.582 471.127 257.837 471.127 257.837C471.716 258.288 472.395 258.758 472.773 259.412L472.88 259.596C473.258 260.253 473.063 261.082 472.444 261.522C470.791 262.696 469.292 264.127 468.011 265.795C467.564 266.378 466.758 266.548 466.122 266.18L465.846 266.02C465.191 265.643 464.722 264.965 464.271 264.375C464.271 264.375 464.016 264.052 463.731 263.668C463.25 263.018 462.498 262.879 461.702 263.464C461.383 263.698 461.108 264.016 460.902 264.374C460.696 264.732 460.557 265.13 460.514 265.523C460.405 266.504 460.901 267.087 461.704 267.178C462.18 267.233 462.587 267.292 462.587 267.292C463.323 267.387 464.146 267.455 464.8 267.833L464.992 267.944C465.649 268.323 465.896 269.138 465.578 269.827C464.697 271.743 464.128 273.735 463.861 275.741C463.763 276.47 463.153 277.019 462.417 277.019H462.106C461.35 277.019 460.604 276.667 459.919 276.381C459.919 276.381 459.537 276.23 459.097 276.039C458.356 275.717 457.635 275.973 457.239 276.877C457.08 277.24 457 277.653 457 278.067C457 278.479 457.08 278.892 457.239 279.255C457.635 280.159 458.356 280.415 459.097 280.093C459.537 279.902 459.919 279.751 459.919 279.751C460.604 279.465 461.35 279.113 462.106 279.113H462.324C463.081 279.113 463.702 279.694 463.773 280.448C463.969 282.505 464.466 284.523 465.25 286.432C465.53 287.111 465.274 287.891 464.638 288.258L464.366 288.416C463.711 288.793 462.889 288.861 462.154 288.957C462.154 288.957 461.746 289.017 461.27 289.07C460.467 289.163 459.971 289.744 460.079 290.726C460.124 291.119 460.262 291.516 460.468 291.874C460.675 292.232 460.949 292.55 461.268 292.784C462.064 293.37 462.816 293.231 463.297 292.581C463.582 292.196 463.837 291.874 463.837 291.874C464.288 291.284 464.758 290.606 465.412 290.228L465.596 290.122C466.254 289.742 467.082 289.937 467.522 290.556C468.696 292.21 470.127 293.709 471.796 294.989C472.379 295.437 472.548 296.242 472.18 296.878L472.021 297.155C471.643 297.809 470.965 298.279 470.376 298.729C470.376 298.729 470.052 298.984 469.668 299.269C469.018 299.75 468.879 300.503 469.464 301.299C469.698 301.617 470.016 301.892 470.375 302.099C470.733 302.306 471.13 302.443 471.523 302.486C472.505 302.596 473.087 302.099 473.178 301.296C473.233 300.821 473.293 300.414 473.293 300.414C473.387 299.678 473.455 298.855 473.834 298.201L473.945 298.009C474.324 297.352 475.138 297.105 475.827 297.422C477.743 298.304 479.735 298.872 481.742 299.14C482.47 299.237 483.02 299.848 483.02 300.584V300.895C483.02 301.651 482.668 302.397 482.382 303.082C482.382 303.082 482.23 303.464 482.039 303.904C481.717 304.645 481.973 305.366 482.878 305.762C483.241 305.921 483.654 306 484.066 306C484.479 306 484.892 305.921 485.255 305.762C486.16 305.366 486.416 304.645 486.094 303.904C485.902 303.464 485.751 303.082 485.751 303.082C485.465 302.397 485.113 301.651 485.113 300.895V300.677C485.113 299.92 485.695 299.298 486.449 299.227C488.505 299.032 490.523 298.535 492.432 297.75C493.112 297.471 493.892 297.727 494.258 298.362L494.416 298.636C494.793 299.29 494.861 300.112 494.957 300.847C494.957 300.847 495.017 301.255 495.071 301.73C495.163 302.533 495.744 303.03 496.726 302.921C497.119 302.878 497.516 302.739 497.875 302.533C498.232 302.326 498.55 302.051 498.784 301.732C499.37 300.936 499.231 300.185 498.582 299.703C498.197 299.419 497.874 299.163 497.874 299.163C497.284 298.713 496.606 298.243 496.228 297.588L496.122 297.404C495.742 296.748 495.937 295.918 496.556 295.479C498.21 294.305 499.709 292.874 500.989 291.205C501.437 290.622 502.242 290.453 502.878 290.82L503.155 290.98C503.809 291.357 504.279 292.035 504.73 292.625C504.73 292.625 504.984 292.948 505.27 293.332C505.751 293.983 506.503 294.121 507.299 293.536C507.617 293.302 507.893 292.984 508.099 292.626C508.306 292.268 508.443 291.87 508.487 291.478C508.596 290.496 508.1 289.914 507.296 289.822C506.822 289.768 506.414 289.708 506.414 289.708C505.679 289.613 504.856 289.545 504.201 289.167L504.01 289.056C503.352 288.677 503.105 287.862 503.422 287.173C504.304 285.258 504.872 283.265 505.14 281.259C505.237 280.53 505.849 279.981 506.584 279.981H506.896C507.651 279.981 508.397 280.333 509.082 280.619C509.082 280.619 509.464 280.771 509.904 280.961C510.645 281.283 511.366 281.027 511.762 280.123C511.921 279.76 512 279.347 512 278.934C512 278.521 511.921 278.108 511.762 277.746Z" stroke="white"/>
</g>
<g opacity="0.15">
<path fill-rule="evenodd" clip-rule="evenodd" d="M482.536 269.661C482.536 272.372 480.337 274.571 477.625 274.571C474.913 274.571 472.714 272.372 472.714 269.661C472.714 266.948 474.913 264.75 477.625 264.75C480.337 264.75 482.536 266.948 482.536 269.661Z" stroke="white"/>
<path fill-rule="evenodd" clip-rule="evenodd" d="M495.304 289.304C495.304 290.931 493.985 292.25 492.358 292.25C490.73 292.25 489.411 290.931 489.411 289.304C489.411 287.676 490.73 286.357 492.358 286.357C493.985 286.357 495.304 287.676 495.304 289.304Z" stroke="white"/>
<path fill-rule="evenodd" clip-rule="evenodd" d="M476.643 282.429C476.643 284.056 475.324 285.375 473.696 285.375C472.069 285.375 470.75 284.056 470.75 282.429C470.75 280.801 472.069 279.482 473.696 279.482C475.324 279.482 476.643 280.801 476.643 282.429Z" stroke="white"/>
<path fill-rule="evenodd" clip-rule="evenodd" d="M488.429 282.429C488.429 284.056 487.109 285.375 485.482 285.375C483.855 285.375 482.536 284.056 482.536 282.429C482.536 280.801 483.855 279.482 485.482 279.482C487.109 279.482 488.429 280.801 488.429 282.429Z" stroke="white"/>
<path fill-rule="evenodd" clip-rule="evenodd" d="M500.214 279.973C500.214 281.329 499.115 282.429 497.759 282.429C496.403 282.429 495.304 281.329 495.304 279.973C495.304 278.618 496.403 277.518 497.759 277.518C499.115 277.518 500.214 278.618 500.214 279.973Z" stroke="white"/>
<path fill-rule="evenodd" clip-rule="evenodd" d="M485.482 292.741C485.482 293.554 484.823 294.214 484.009 294.214C483.195 294.214 482.536 293.554 482.536 292.741C482.536 291.927 483.195 291.268 484.009 291.268C484.823 291.268 485.482 291.927 485.482 292.741Z" stroke="white"/>
<path fill-rule="evenodd" clip-rule="evenodd" d="M493.339 271.134C493.339 271.947 492.679 272.607 491.866 272.607C491.052 272.607 490.393 271.947 490.393 271.134C490.393 270.32 491.052 269.661 491.866 269.661C492.679 269.661 493.339 270.32 493.339 271.134Z" stroke="white"/>
<path fill-rule="evenodd" clip-rule="evenodd" d="M511.762 277.746C511.366 276.841 510.645 276.586 509.904 276.907C509.464 277.098 509.082 277.25 509.082 277.25C508.397 277.536 507.651 277.888 506.896 277.888H506.678C505.92 277.888 505.299 277.306 505.227 276.552C505.033 274.495 504.535 272.477 503.751 270.568C503.472 269.889 503.727 269.109 504.363 268.743L504.636 268.584C505.29 268.207 506.113 268.139 506.848 268.044C506.848 268.044 507.255 267.984 507.73 267.93C508.534 267.838 509.03 267.256 508.921 266.274C508.878 265.881 508.74 265.484 508.533 265.126C508.326 264.768 508.051 264.45 507.733 264.216C506.936 263.631 506.186 263.769 505.703 264.419C505.419 264.804 505.163 265.127 505.163 265.127C504.713 265.716 504.243 266.395 503.588 266.773L503.405 266.879C502.748 267.258 501.918 267.063 501.479 266.444C500.305 264.79 498.874 263.292 497.206 262.011C496.622 261.563 496.453 260.758 496.82 260.122L496.98 259.846C497.357 259.191 498.036 258.721 498.626 258.271C498.626 258.271 498.948 258.016 499.333 257.731C499.983 257.25 500.122 256.497 499.537 255.702C499.302 255.383 498.984 255.108 498.626 254.901C498.269 254.695 497.871 254.557 497.478 254.514C496.497 254.404 495.914 254.901 495.822 255.704C495.768 256.179 495.709 256.586 495.709 256.586C495.613 257.322 495.545 258.145 495.168 258.8L495.057 258.991C494.678 259.649 493.862 259.895 493.173 259.578C491.258 258.697 489.266 258.128 487.26 257.86C486.53 257.763 485.981 257.152 485.981 256.417V256.106C485.981 255.35 486.333 254.604 486.619 253.919C486.619 253.919 486.771 253.537 486.961 253.097C487.284 252.356 487.027 251.634 486.123 251.239C485.761 251.08 485.348 251 484.934 251C484.521 251 484.108 251.08 483.746 251.239C482.841 251.634 482.586 252.356 482.907 253.097C483.099 253.537 483.25 253.919 483.25 253.919C483.536 254.604 483.888 255.35 483.888 256.106V256.323C483.888 257.081 483.307 257.702 482.552 257.773C480.495 257.968 478.477 258.465 476.569 259.25C475.89 259.529 475.11 259.274 474.743 258.638L474.585 258.365C474.207 257.71 474.139 256.889 474.044 256.153C474.044 256.153 473.984 255.746 473.93 255.27C473.839 254.467 473.257 253.97 472.274 254.079C471.882 254.123 471.484 254.261 471.126 254.468C470.769 254.674 470.451 254.949 470.216 255.268C469.631 256.064 469.77 256.816 470.42 257.297C470.805 257.582 471.127 257.837 471.127 257.837C471.716 258.288 472.395 258.758 472.773 259.412L472.88 259.596C473.258 260.253 473.063 261.082 472.444 261.522C470.791 262.696 469.292 264.127 468.011 265.795C467.564 266.378 466.758 266.548 466.122 266.18L465.846 266.02C465.191 265.643 464.722 264.965 464.271 264.375C464.271 264.375 464.016 264.052 463.731 263.668C463.25 263.018 462.498 262.879 461.702 263.464C461.383 263.698 461.108 264.016 460.902 264.374C460.696 264.732 460.557 265.13 460.514 265.523C460.405 266.504 460.901 267.087 461.704 267.178C462.18 267.233 462.587 267.292 462.587 267.292C463.323 267.387 464.146 267.455 464.8 267.833L464.992 267.944C465.649 268.323 465.896 269.138 465.578 269.827C464.697 271.743 464.128 273.735 463.861 275.741C463.763 276.47 463.153 277.019 462.417 277.019H462.106C461.35 277.019 460.604 276.667 459.919 276.381C459.919 276.381 459.537 276.23 459.097 276.039C458.356 275.717 457.635 275.973 457.239 276.877C457.08 277.24 457 277.653 457 278.067C457 278.479 457.08 278.892 457.239 279.255C457.635 280.159 458.356 280.415 459.097 280.093C459.537 279.902 459.919 279.751 459.919 279.751C460.604 279.465 461.35 279.113 462.106 279.113H462.324C463.081 279.113 463.702 279.694 463.773 280.448C463.969 282.505 464.466 284.523 465.25 286.432C465.53 287.111 465.274 287.891 464.638 288.258L464.366 288.416C463.711 288.793 462.889 288.861 462.154 288.957C462.154 288.957 461.746 289.017 461.27 289.07C460.467 289.163 459.971 289.744 460.079 290.726C460.124 291.119 460.262 291.516 460.468 291.874C460.675 292.232 460.949 292.55 461.268 292.784C462.064 293.37 462.816 293.231 463.297 292.581C463.582 292.196 463.837 291.874 463.837 291.874C464.288 291.284 464.758 290.606 465.412 290.228L465.596 290.122C466.254 289.742 467.082 289.937 467.522 290.556C468.696 292.21 470.127 293.709 471.796 294.989C472.379 295.437 472.548 296.242 472.18 296.878L472.021 297.155C471.643 297.809 470.965 298.279 470.376 298.729C470.376 298.729 470.052 298.984 469.668 299.269C469.018 299.75 468.879 300.503 469.464 301.299C469.698 301.617 470.016 301.892 470.375 302.099C470.733 302.306 471.13 302.443 471.523 302.486C472.505 302.596 473.087 302.099 473.178 301.296C473.233 300.821 473.293 300.414 473.293 300.414C473.387 299.678 473.455 298.855 473.834 298.201L473.945 298.009C474.324 297.352 475.138 297.105 475.827 297.422C477.743 298.304 479.735 298.872 481.742 299.14C482.47 299.237 483.02 299.848 483.02 300.584V300.895C483.02 301.651 482.668 302.397 482.382 303.082C482.382 303.082 482.23 303.464 482.039 303.904C481.717 304.645 481.973 305.366 482.878 305.762C483.241 305.921 483.654 306 484.066 306C484.479 306 484.892 305.921 485.255 305.762C486.16 305.366 486.416 304.645 486.094 303.904C485.902 303.464 485.751 303.082 485.751 303.082C485.465 302.397 485.113 301.651 485.113 300.895V300.677C485.113 299.92 485.695 299.298 486.449 299.227C488.505 299.032 490.523 298.535 492.432 297.75C493.112 297.471 493.892 297.727 494.258 298.362L494.416 298.636C494.793 299.29 494.861 300.112 494.957 300.847C494.957 300.847 495.017 301.255 495.071 301.73C495.163 302.533 495.744 303.03 496.726 302.921C497.119 302.878 497.516 302.739 497.875 302.533C498.232 302.326 498.55 302.051 498.784 301.732C499.37 300.936 499.231 300.185 498.582 299.703C498.197 299.419 497.874 299.163 497.874 299.163C497.284 298.713 496.606 298.243 496.228 297.588L496.122 297.404C495.742 296.748 495.937 295.918 496.556 295.479C498.21 294.305 499.709 292.874 500.989 291.205C501.437 290.622 502.242 290.453 502.878 290.82L503.155 290.98C503.809 291.357 504.279 292.035 504.73 292.625C504.73 292.625 504.984 292.948 505.27 293.332C505.751 293.983 506.503 294.121 507.299 293.536C507.617 293.302 507.893 292.984 508.099 292.626C508.306 292.268 508.443 291.87 508.487 291.478C508.596 290.496 508.1 289.914 507.296 289.822C506.822 289.768 506.414 289.708 506.414 289.708C505.679 289.613 504.856 289.545 504.201 289.167L504.01 289.056C503.352 288.677 503.105 287.862 503.422 287.173C504.304 285.258 504.872 283.265 505.14 281.259C505.237 280.53 505.849 279.981 506.584 279.981H506.896C507.651 279.981 508.397 280.333 509.082 280.619C509.082 280.619 509.464 280.771 509.904 280.961C510.645 281.283 511.366 281.027 511.762 280.123C511.921 279.76 512 279.347 512 278.934C512 278.521 511.921 278.108 511.762 277.746Z" stroke="white"/>
</g>
</g>
</svg>
