<svg width="11" height="11" viewBox="0 0 11 11" fill="none" xmlns="http://www.w3.org/2000/svg">
<path fill-rule="evenodd" clip-rule="evenodd" d="M6.97238 10.8334C6.96013 10.8334 6.94846 10.8328 6.9368 10.8322C6.67313 10.8165 6.45321 10.6251 6.40071 10.3661L5.50355 5.95205C5.45688 5.72222 5.2778 5.54313 5.04797 5.49647L0.633882 4.59872C0.374882 4.5468 0.183548 4.32688 0.167798 4.06322C0.152048 3.79897 0.314798 3.55747 0.565632 3.47463L9.89896 0.363716C10.1084 0.29255 10.3394 0.347383 10.4957 0.5043C10.652 0.660633 10.7063 0.891633 10.6369 1.10105L7.52538 10.4344C7.44605 10.6741 7.22205 10.8334 6.97238 10.8334Z" fill="#878AA1"/>
<mask id="mask0" mask-type="alpha" maskUnits="userSpaceOnUse" x="0" y="0" width="11" height="11">
<path fill-rule="evenodd" clip-rule="evenodd" d="M6.97238 10.8334C6.96013 10.8334 6.94846 10.8328 6.9368 10.8322C6.67313 10.8165 6.45321 10.6251 6.40071 10.3661L5.50355 5.95205C5.45688 5.72222 5.2778 5.54313 5.04797 5.49647L0.633882 4.59872C0.374882 4.5468 0.183548 4.32688 0.167798 4.06322C0.152048 3.79897 0.314798 3.55747 0.565632 3.47463L9.89896 0.363716C10.1084 0.29255 10.3394 0.347383 10.4957 0.5043C10.652 0.660633 10.7063 0.891633 10.6369 1.10105L7.52538 10.4344C7.44605 10.6741 7.22205 10.8334 6.97238 10.8334Z" fill="white"/>
</mask>
<g mask="url(#mask0)">
</g>
</svg>
