<?xml version="1.0" encoding="utf-8"?>
<!-- Generator: Adobe Illustrator 24.0.2, SVG Export Plug-In . SVG Version: 6.00 Build 0)  -->
<svg version="1.1" id="Layer_1" xmlns="http://www.w3.org/2000/svg" xmlns:xlink="http://www.w3.org/1999/xlink" x="0px" y="0px"
	 viewBox="0 0 397.72 195.08" enable-background="new 0 0 397.72 195.08" xml:space="preserve">
<g>
	<path fill="#817CCE" d="M373.03,107.96c-11.3,10.86-24.03,11.38-37.05,6.21c-14.68-5.83-21.56-17.9-22.63-33.15
		c-1.14-16.12,3.66-30.11,17.61-39.53c12.66-8.55,30.71-6.5,41.96,4.22c0.54,0.52,1.2,0.92,2.38,1.81c0-3.28,0-5.85,0-9.27
		c3.92,0,7.49,0,11.07,0c3.48,0,6.96,0,11.01,0c0.1,2.04,0.27,3.8,0.27,5.56c0.02,22.5,0.22,45.01-0.11,67.51
		c-0.09,6.08-1,12.38-2.88,18.15c-5,15.37-16.81,22.51-32.22,24.45c-3.62,0.46-7.31,0.58-10.97,0.59
		c-80.32,0.04-160.64,0.01-240.96,0.17c-2.68,0.01-5.88,1.19-7.95,2.9c-13.24,10.91-26.29,22.05-39.27,33.28
		c-4.61,3.98-9.59,5.53-15.17,3.01c-5.63-2.55-7.67-7.37-7.53-13.48c0.2-8.46,0.05-16.92,0.05-25.99c-13,0-25.57,0-38.41,0
		c0-7.34,0-14.07,0-21.04c19.77,0,39.2,0,59.3,0c0,9.99,0,19.84,0,31.09c3-2.58,4.93-4.26,6.89-5.91
		c8.9-7.54,17.69-15.21,26.78-22.51c2.11-1.69,5.26-2.95,7.94-2.96c82.65-0.15,165.3-0.13,247.96-0.12
		C367.93,132.93,374.58,125.63,373.03,107.96z M356.59,95.64c10.35-0.1,19-9.01,18.79-19.35c-0.21-10.1-9.03-18.6-19.16-18.46
		c-10.2,0.14-18.8,8.77-18.79,18.84C337.44,87.06,346.21,95.74,356.59,95.64z"/>
	<path fill="#817CCE" d="M229.02,116.02c0-26.09,0-51.53,0-77.38c7.74,0,15.27,0,23.21,0c0.12,2.67,0.24,5.26,0.39,8.45
		c2.38-2.17,4.22-4.23,6.41-5.8c17.21-12.32,40.34-3.13,43.73,17.63c1.15,7.01,0.99,14.26,1.08,21.41
		c0.16,11.78,0.04,23.57,0.04,35.65c-8.27,0-15.99,0-24.31,0c0-8.59,0.01-17.03,0-25.47c-0.01-6.16,0.14-12.33-0.11-18.49
		c-0.36-9.2-4.33-13.95-11.43-14.19c-8.54-0.29-13.71,3.84-14.23,13.17c-0.72,12.95-0.4,25.97-0.52,38.95c-0.02,1.95,0,3.9,0,6.06
		C244.91,116.02,237.17,116.02,229.02,116.02z"/>
	<path fill="#817CCE" d="M63.57,46.5c-4.82,4.97-9.43,9.73-13.93,14.38c-3.11-1.77-5.9-4.1-9.08-4.96
		c-3.03-0.82-6.62-0.68-9.67,0.13c-1.7,0.45-3.7,3.04-3.9,4.85c-0.15,1.4,1.99,3.88,3.63,4.48c4.66,1.72,9.58,2.71,14.4,4.02
		c2.41,0.65,4.89,1.14,7.18,2.08c7.45,3.07,13.29,7.72,14.46,16.35c1.3,9.62-1.06,17.8-9.39,23.69
		c-13.45,9.51-41.68,8.64-54.45-1.78c-0.77-0.62-1.62-1.14-2.8-1.95c5.26-5.84,10-11.1,14.87-16.5c2.03,1.71,3.69,3.32,5.55,4.65
		c5.39,3.83,11.41,4.61,17.6,2.66c1.75-0.55,4.27-2.56,4.26-3.88c-0.02-1.79-1.75-4.31-3.43-5.17c-3.05-1.56-6.6-2.17-9.97-3.1
		c-3.85-1.06-7.77-1.87-11.57-3.09c-20.08-6.46-17.46-29.92-7.23-38.89C23.22,32.93,51.17,33.78,63.57,46.5z"/>
	<path fill="#817CCE" d="M99.44,38.23c7.16,0,13.75,0,20.69,0c0,6.54,0,12.63,0,19.33c-6.62,0-13.35,0-20.29,0
		c0,11.2-0.23,21.79,0.11,32.37c0.14,4.27,3.19,7.1,7.53,7.34c4.08,0.23,8.2-0.32,13-0.56c0,5.43,0.1,11.18-0.1,16.92
		c-0.03,0.94-1.25,2.45-2.16,2.65c-11.41,2.5-22.78,3.46-33.47-2.7c-5.93-3.42-9.26-8.86-9.32-15.6
		c-0.23-26.49-0.13-52.98-0.22-79.48c-0.01-2.69,1.08-3.41,3.6-3.34c5.66,0.15,11.33,0.16,16.99,0c2.86-0.08,3.76,0.96,3.68,3.78
		C99.31,25.1,99.44,31.26,99.44,38.23z"/>
	<path fill="#817CCE" d="M155.65,48.96c5.49-9.82,13.97-13.35,24.73-12.6c3.45,0.24,5.1,1.09,4.88,4.97
		c-0.33,5.79-0.09,11.61-0.09,17.54c-3.97-0.38-7.55-1.02-11.13-1.02c-12.07-0.01-18.44,5.68-19.01,17.7
		c-0.54,11.47-0.32,22.97-0.42,34.46c-0.02,1.82,0,3.63,0,5.87c-8.02,0-15.72,0-23.84,0c0-25.65,0-51.33,0-77.32
		c7.86,0,15.56,0,23.75,0c0,3.49,0,6.71,0,9.94C154.9,48.64,155.28,48.8,155.65,48.96z"/>
	<path fill="#817CCE" d="M194.53,38.41c8.03,0,15.64,0,23.64,0c0,25.85,0,51.52,0,77.53c-7.81,0-15.53,0-23.64,0
		C194.53,90.27,194.53,64.58,194.53,38.41z"/>
	<path fill="#817CCE" d="M192.39,14.25C192.31,6.18,198.4-0.01,206.4,0c7.76,0.01,13.89,6.01,14.07,13.79
		c0.18,7.78-6.3,14.37-14.11,14.33C198.65,28.09,192.46,21.95,192.39,14.25z"/>
</g>
<g>
</g>
<g>
</g>
<g>
</g>
<g>
</g>
<g>
</g>
<g>
</g>
<g>
</g>
<g>
</g>
<g>
</g>
<g>
</g>
<g>
</g>
<g>
</g>
<g>
</g>
<g>
</g>
<g>
</g>
</svg>
